<?xml version="1.0" encoding="UTF-8" standalone="no"?>
<!DOCTYPE svg PUBLIC "-//W3C//DTD SVG 1.1//EN"
 "http://www.w3.org/Graphics/SVG/1.1/DTD/svg11.dtd">
<!-- Generated by graphviz version 2.46.0 (20210119.1425)
 -->
<!-- Title: dependencies Pages: 1 -->
<svg width="504pt" height="211pt"
 viewBox="0.00 0.00 504.00 211.00" xmlns="http://www.w3.org/2000/svg" xmlns:xlink="http://www.w3.org/1999/xlink">
<g id="graph0" class="graph" transform="scale(1 1) rotate(0) translate(4 207)">
<title>dependencies</title>
<polygon fill="white" stroke="transparent" points="-4,4 -4,-207 500,-207 500,4 -4,4"/>
<text text-anchor="start" x="227.01" y="-42.4" font-family="sans-serif" font-weight="bold" font-size="14.00">Legend</text>
<polygon fill="#ffffb3" stroke="transparent" points="14,-10 14,-30 34,-30 34,-10 14,-10"/>
<text text-anchor="start" x="37.63" y="-15.4" font-family="sans-serif" font-size="14.00"> &#160;Declarations</text>
<polygon fill="#8dd3c7" stroke="transparent" points="127,-10 127,-30 147,-30 147,-10 127,-10"/>
<text text-anchor="start" x="150.73" y="-15.4" font-family="sans-serif" font-size="14.00"> &#160;Module</text>
<polygon fill="#80b1d3" stroke="transparent" points="213,-10 213,-30 233,-30 233,-10 213,-10"/>
<text text-anchor="start" x="236.78" y="-15.4" font-family="sans-serif" font-size="14.00"> &#160;Bootstrap</text>
<polygon fill="#fdb462" stroke="transparent" points="310,-10 310,-30 330,-30 330,-10 310,-10"/>
<text text-anchor="start" x="333.67" y="-15.4" font-family="sans-serif" font-size="14.00"> &#160;Providers</text>
<polygon fill="#fb8072" stroke="transparent" points="406,-10 406,-30 426,-30 426,-10 406,-10"/>
<text text-anchor="start" x="429.73" y="-15.4" font-family="sans-serif" font-size="14.00"> &#160;Exports</text>
<g id="clust1" class="cluster">
<title>cluster_ProductHttpModule</title>
<polygon fill="none" stroke="black" stroke-dasharray="1,5" points="98,-70 98,-195 398,-195 398,-70 98,-70"/>
</g>
<g id="clust3" class="cluster">
<title>cluster_ProductHttpModule_imports</title>
<polygon fill="none" stroke="black" points="270,-78 270,-130 390,-130 390,-78 270,-78"/>
</g>
<g id="clust6" class="cluster">
<title>cluster_ProductHttpModule_providers</title>
<polygon fill="none" stroke="black" points="106,-78 106,-130 262,-130 262,-78 106,-78"/>
</g>
<!-- ProductModule -->
<g id="node1" class="node">
<title>ProductModule</title>
<polygon fill="#8dd3c7" stroke="black" points="381.6,-122 378.6,-126 357.6,-126 354.6,-122 278.4,-122 278.4,-86 381.6,-86 381.6,-122"/>
<text text-anchor="middle" x="330" y="-99.8" font-family="Times,serif" font-size="14.00">ProductModule</text>
</g>
<!-- ProductHttpModule -->
<g id="node2" class="node">
<title>ProductHttpModule</title>
<polygon fill="#8dd3c7" stroke="black" points="318.99,-187 315.99,-191 294.99,-191 291.99,-187 191.01,-187 191.01,-151 318.99,-151 318.99,-187"/>
<text text-anchor="middle" x="255" y="-164.8" font-family="Times,serif" font-size="14.00">ProductHttpModule</text>
</g>
<!-- ProductModule&#45;&gt;ProductHttpModule -->
<g id="edge1" class="edge">
<title>ProductModule&#45;&gt;ProductHttpModule</title>
<path fill="none" stroke="black" d="M298.72,-122.11C298.72,-122.11 298.72,-140.99 298.72,-140.99"/>
<polygon fill="black" stroke="black" points="295.22,-140.99 298.72,-150.99 302.22,-140.99 295.22,-140.99"/>
</g>
<!-- ProductService -->
<g id="node3" class="node">
<title>ProductService</title>
<ellipse fill="#fdb462" stroke="black" cx="184" cy="-104" rx="70.06" ry="18"/>
<text text-anchor="middle" x="184" y="-99.8" font-family="Times,serif" font-size="14.00">ProductService</text>
</g>
<!-- ProductService&#45;&gt;ProductHttpModule -->
<g id="edge2" class="edge">
<title>ProductService&#45;&gt;ProductHttpModule</title>
<path fill="none" stroke="black" d="M222.52,-119.08C222.52,-119.08 222.52,-140.76 222.52,-140.76"/>
<polygon fill="black" stroke="black" points="219.02,-140.76 222.52,-150.76 226.02,-140.76 219.02,-140.76"/>
</g>
</g>
</svg>
