<?xml version="1.0" encoding="UTF-8" standalone="no"?>
<!DOCTYPE svg PUBLIC "-//W3C//DTD SVG 1.1//EN"
 "http://www.w3.org/Graphics/SVG/1.1/DTD/svg11.dtd">
<!-- Generated by graphviz version 2.46.0 (20210119.1425)
 -->
<!-- Title: dependencies Pages: 1 -->
<svg width="504pt" height="211pt"
 viewBox="0.00 0.00 504.00 211.00" xmlns="http://www.w3.org/2000/svg" xmlns:xlink="http://www.w3.org/1999/xlink">
<g id="graph0" class="graph" transform="scale(1 1) rotate(0) translate(4 207)">
<title>dependencies</title>
<polygon fill="white" stroke="transparent" points="-4,4 -4,-207 500,-207 500,4 -4,4"/>
<text text-anchor="start" x="227.01" y="-42.4" font-family="sans-serif" font-weight="bold" font-size="14.00">Legend</text>
<polygon fill="#ffffb3" stroke="transparent" points="14,-10 14,-30 34,-30 34,-10 14,-10"/>
<text text-anchor="start" x="37.63" y="-15.4" font-family="sans-serif" font-size="14.00"> &#160;Declarations</text>
<polygon fill="#8dd3c7" stroke="transparent" points="127,-10 127,-30 147,-30 147,-10 127,-10"/>
<text text-anchor="start" x="150.73" y="-15.4" font-family="sans-serif" font-size="14.00"> &#160;Module</text>
<polygon fill="#80b1d3" stroke="transparent" points="213,-10 213,-30 233,-30 233,-10 213,-10"/>
<text text-anchor="start" x="236.78" y="-15.4" font-family="sans-serif" font-size="14.00"> &#160;Bootstrap</text>
<polygon fill="#fdb462" stroke="transparent" points="310,-10 310,-30 330,-30 330,-10 310,-10"/>
<text text-anchor="start" x="333.67" y="-15.4" font-family="sans-serif" font-size="14.00"> &#160;Providers</text>
<polygon fill="#fb8072" stroke="transparent" points="406,-10 406,-30 426,-30 426,-10 406,-10"/>
<text text-anchor="start" x="429.73" y="-15.4" font-family="sans-serif" font-size="14.00"> &#160;Exports</text>
<g id="clust1" class="cluster">
<title>cluster_ProductHttpModule</title>
<polygon fill="none" stroke="black" stroke-dasharray="1,5" points="98,-70 98,-195 398,-195 398,-70 98,-70"/>
</g>
<g id="clust6" class="cluster">
<title>cluster_ProductHttpModule_providers</title>
<polygon fill="none" stroke="black" points="234,-78 234,-130 390,-130 390,-78 234,-78"/>
</g>
<g id="clust3" class="cluster">
<title>cluster_ProductHttpModule_imports</title>
<polygon fill="none" stroke="black" points="106,-78 106,-130 226,-130 226,-78 106,-78"/>
</g>
<!-- ProductModule -->
<g id="node1" class="node">
<title>ProductModule</title>
<polygon fill="#8dd3c7" stroke="black" points="217.6,-122 214.6,-126 193.6,-126 190.6,-122 114.4,-122 114.4,-86 217.6,-86 217.6,-122"/>
<text text-anchor="middle" x="166" y="-99.8" font-family="Times,serif" font-size="14.00">ProductModule</text>
</g>
<!-- ProductHttpModule -->
<g id="node2" class="node">
<title>ProductHttpModule</title>
<polygon fill="#8dd3c7" stroke="black" points="304.99,-187 301.99,-191 280.99,-191 277.99,-187 177.01,-187 177.01,-151 304.99,-151 304.99,-187"/>
<text text-anchor="middle" x="241" y="-164.8" font-family="Times,serif" font-size="14.00">ProductHttpModule</text>
</g>
<!-- ProductModule&#45;&gt;ProductHttpModule -->
<g id="edge1" class="edge">
<title>ProductModule&#45;&gt;ProductHttpModule</title>
<path fill="none" stroke="black" d="M197.28,-122.11C197.28,-122.11 197.28,-140.99 197.28,-140.99"/>
<polygon fill="black" stroke="black" points="193.78,-140.99 197.28,-150.99 200.78,-140.99 193.78,-140.99"/>
</g>
<!-- ProductService -->
<g id="node3" class="node">
<title>ProductService</title>
<ellipse fill="#fdb462" stroke="black" cx="312" cy="-104" rx="70.06" ry="18"/>
<text text-anchor="middle" x="312" y="-99.8" font-family="Times,serif" font-size="14.00">ProductService</text>
</g>
<!-- ProductService&#45;&gt;ProductHttpModule -->
<g id="edge2" class="edge">
<title>ProductService&#45;&gt;ProductHttpModule</title>
<path fill="none" stroke="black" d="M273.48,-119.08C273.48,-119.08 273.48,-140.76 273.48,-140.76"/>
<polygon fill="black" stroke="black" points="269.98,-140.76 273.48,-150.76 276.98,-140.76 269.98,-140.76"/>
</g>
</g>
</svg>
