<?xml version="1.0" encoding="UTF-8" standalone="no"?>
<!DOCTYPE svg PUBLIC "-//W3C//DTD SVG 1.1//EN"
 "http://www.w3.org/Graphics/SVG/1.1/DTD/svg11.dtd">
<!-- Generated by graphviz version 2.46.0 (20210119.1425)
 -->
<!-- Title: dependencies Pages: 1 -->
<svg width="580pt" height="284pt"
 viewBox="0.00 0.00 580.00 284.00" xmlns="http://www.w3.org/2000/svg" xmlns:xlink="http://www.w3.org/1999/xlink">
<g id="graph0" class="graph" transform="scale(1 1) rotate(0) translate(4 280)">
<title>dependencies</title>
<polygon fill="white" stroke="transparent" points="-4,4 -4,-280 576,-280 576,4 -4,4"/>
<text text-anchor="start" x="265.01" y="-42.4" font-family="sans-serif" font-weight="bold" font-size="14.00">Legend</text>
<polygon fill="#ffffb3" stroke="transparent" points="52,-10 52,-30 72,-30 72,-10 52,-10"/>
<text text-anchor="start" x="75.63" y="-15.4" font-family="sans-serif" font-size="14.00"> &#160;Declarations</text>
<polygon fill="#8dd3c7" stroke="transparent" points="165,-10 165,-30 185,-30 185,-10 165,-10"/>
<text text-anchor="start" x="188.73" y="-15.4" font-family="sans-serif" font-size="14.00"> &#160;Module</text>
<polygon fill="#80b1d3" stroke="transparent" points="251,-10 251,-30 271,-30 271,-10 251,-10"/>
<text text-anchor="start" x="274.78" y="-15.4" font-family="sans-serif" font-size="14.00"> &#160;Bootstrap</text>
<polygon fill="#fdb462" stroke="transparent" points="348,-10 348,-30 368,-30 368,-10 348,-10"/>
<text text-anchor="start" x="371.67" y="-15.4" font-family="sans-serif" font-size="14.00"> &#160;Providers</text>
<polygon fill="#fb8072" stroke="transparent" points="444,-10 444,-30 464,-30 464,-10 444,-10"/>
<text text-anchor="start" x="467.73" y="-15.4" font-family="sans-serif" font-size="14.00"> &#160;Exports</text>
<g id="clust1" class="cluster">
<title>cluster_AuthModule</title>
<polygon fill="none" stroke="black" stroke-dasharray="1,5" points="8,-70 8,-268 564,-268 564,-70 8,-70"/>
</g>
<g id="clust2" class="cluster">
<title>cluster_AuthModule_declarations</title>
<polygon fill="none" stroke="black" points="16,-78 16,-130 556,-130 556,-78 16,-78"/>
</g>
<g id="clust7" class="cluster">
<title>cluster_AuthModule_exports</title>
<polygon fill="none" stroke="black" points="99,-208 99,-260 437,-260 437,-208 99,-208"/>
</g>
<!-- AuthPageTemplateComponent -->
<g id="node1" class="node">
<title>AuthPageTemplateComponent</title>
<polygon fill="#ffffb3" stroke="black" points="547.91,-122 358.09,-122 358.09,-86 547.91,-86 547.91,-122"/>
<text text-anchor="middle" x="453" y="-99.8" font-family="Times,serif" font-size="14.00">AuthPageTemplateComponent</text>
</g>
<!-- AuthModule -->
<g id="node4" class="node">
<title>AuthModule</title>
<polygon fill="#8dd3c7" stroke="black" points="312.55,-187 309.55,-191 288.55,-191 285.55,-187 225.45,-187 225.45,-151 312.55,-151 312.55,-187"/>
<text text-anchor="middle" x="269" y="-164.8" font-family="Times,serif" font-size="14.00">AuthModule</text>
</g>
<!-- AuthPageTemplateComponent&#45;&gt;AuthModule -->
<g id="edge1" class="edge">
<title>AuthPageTemplateComponent&#45;&gt;AuthModule</title>
<path fill="none" stroke="black" d="M393.52,-122.11C393.52,-141.34 393.52,-169 393.52,-169 393.52,-169 322.55,-169 322.55,-169"/>
<polygon fill="black" stroke="black" points="322.55,-165.5 312.55,-169 322.55,-172.5 322.55,-165.5"/>
</g>
<!-- LoginPageComponent -->
<g id="node2" class="node">
<title>LoginPageComponent</title>
<polygon fill="#ffffb3" stroke="black" points="339.99,-122 198.01,-122 198.01,-86 339.99,-86 339.99,-122"/>
<text text-anchor="middle" x="269" y="-99.8" font-family="Times,serif" font-size="14.00">LoginPageComponent</text>
</g>
<!-- LoginPageComponent&#45;&gt;AuthModule -->
<g id="edge2" class="edge">
<title>LoginPageComponent&#45;&gt;AuthModule</title>
<path fill="none" stroke="black" d="M269,-122.11C269,-122.11 269,-140.99 269,-140.99"/>
<polygon fill="black" stroke="black" points="265.5,-140.99 269,-150.99 272.5,-140.99 265.5,-140.99"/>
</g>
<!-- RegisterPageComponent -->
<g id="node3" class="node">
<title>RegisterPageComponent</title>
<polygon fill="#ffffb3" stroke="black" points="179.7,-122 24.3,-122 24.3,-86 179.7,-86 179.7,-122"/>
<text text-anchor="middle" x="102" y="-99.8" font-family="Times,serif" font-size="14.00">RegisterPageComponent</text>
</g>
<!-- RegisterPageComponent&#45;&gt;AuthModule -->
<g id="edge3" class="edge">
<title>RegisterPageComponent&#45;&gt;AuthModule</title>
<path fill="none" stroke="black" d="M143.12,-122.11C143.12,-141.34 143.12,-169 143.12,-169 143.12,-169 215.33,-169 215.33,-169"/>
<polygon fill="black" stroke="black" points="215.33,-172.5 225.33,-169 215.33,-165.5 215.33,-172.5"/>
</g>
<!-- LoginPageComponent  -->
<g id="node5" class="node">
<title>LoginPageComponent </title>
<polygon fill="#fb8072" stroke="black" points="428.99,-252 283.01,-252 283.01,-216 428.99,-216 428.99,-252"/>
<text text-anchor="middle" x="356" y="-229.8" font-family="Times,serif" font-size="14.00">LoginPageComponent </text>
</g>
<!-- AuthModule&#45;&gt;LoginPageComponent  -->
<g id="edge4" class="edge">
<title>AuthModule&#45;&gt;LoginPageComponent </title>
<path fill="none" stroke="black" stroke-dasharray="5,2" d="M298.01,-187.11C298.01,-187.11 298.01,-205.99 298.01,-205.99"/>
<polygon fill="black" stroke="black" points="294.51,-205.99 298.01,-215.99 301.51,-205.99 294.51,-205.99"/>
</g>
<!-- RegisterPageComponent  -->
<g id="node6" class="node">
<title>RegisterPageComponent </title>
<polygon fill="#fb8072" stroke="black" points="265.2,-252 106.8,-252 106.8,-216 265.2,-216 265.2,-252"/>
<text text-anchor="middle" x="186" y="-229.8" font-family="Times,serif" font-size="14.00">RegisterPageComponent </text>
</g>
<!-- AuthModule&#45;&gt;RegisterPageComponent  -->
<g id="edge5" class="edge">
<title>AuthModule&#45;&gt;RegisterPageComponent </title>
<path fill="none" stroke="black" stroke-dasharray="5,2" d="M245.29,-187.11C245.29,-187.11 245.29,-205.99 245.29,-205.99"/>
<polygon fill="black" stroke="black" points="241.79,-205.99 245.29,-215.99 248.79,-205.99 241.79,-205.99"/>
</g>
</g>
</svg>
