<?xml version="1.0" encoding="UTF-8" standalone="no"?>
<!DOCTYPE svg PUBLIC "-//W3C//DTD SVG 1.1//EN"
 "http://www.w3.org/Graphics/SVG/1.1/DTD/svg11.dtd">
<!-- Generated by graphviz version 2.46.0 (20210119.1425)
 -->
<!-- Title: dependencies Pages: 1 -->
<svg width="504pt" height="211pt"
 viewBox="0.00 0.00 504.00 211.00" xmlns="http://www.w3.org/2000/svg" xmlns:xlink="http://www.w3.org/1999/xlink">
<g id="graph0" class="graph" transform="scale(1 1) rotate(0) translate(4 207)">
<title>dependencies</title>
<polygon fill="white" stroke="transparent" points="-4,4 -4,-207 500,-207 500,4 -4,4"/>
<text text-anchor="start" x="227.01" y="-42.4" font-family="sans-serif" font-weight="bold" font-size="14.00">Legend</text>
<polygon fill="#ffffb3" stroke="transparent" points="14,-10 14,-30 34,-30 34,-10 14,-10"/>
<text text-anchor="start" x="37.63" y="-15.4" font-family="sans-serif" font-size="14.00"> &#160;Declarations</text>
<polygon fill="#8dd3c7" stroke="transparent" points="127,-10 127,-30 147,-30 147,-10 127,-10"/>
<text text-anchor="start" x="150.73" y="-15.4" font-family="sans-serif" font-size="14.00"> &#160;Module</text>
<polygon fill="#80b1d3" stroke="transparent" points="213,-10 213,-30 233,-30 233,-10 213,-10"/>
<text text-anchor="start" x="236.78" y="-15.4" font-family="sans-serif" font-size="14.00"> &#160;Bootstrap</text>
<polygon fill="#fdb462" stroke="transparent" points="310,-10 310,-30 330,-30 330,-10 310,-10"/>
<text text-anchor="start" x="333.67" y="-15.4" font-family="sans-serif" font-size="14.00"> &#160;Providers</text>
<polygon fill="#fb8072" stroke="transparent" points="406,-10 406,-30 426,-30 426,-10 406,-10"/>
<text text-anchor="start" x="429.73" y="-15.4" font-family="sans-serif" font-size="14.00"> &#160;Exports</text>
<g id="clust1" class="cluster">
<title>cluster_FavoritesModule</title>
<polygon fill="none" stroke="black" stroke-dasharray="1,5" points="91,-70 91,-195 405,-195 405,-70 91,-70"/>
</g>
<g id="clust2" class="cluster">
<title>cluster_FavoritesModule_declarations</title>
<polygon fill="none" stroke="black" points="221,-78 221,-130 397,-130 397,-78 221,-78"/>
</g>
<g id="clust4" class="cluster">
<title>cluster_FavoritesModule_imports</title>
<polygon fill="none" stroke="black" points="99,-78 99,-130 213,-130 213,-78 99,-78"/>
</g>
<!-- FavoritesPageComponent -->
<g id="node1" class="node">
<title>FavoritesPageComponent</title>
<polygon fill="#ffffb3" stroke="black" points="389.14,-122 228.86,-122 228.86,-86 389.14,-86 389.14,-122"/>
<text text-anchor="middle" x="309" y="-99.8" font-family="Times,serif" font-size="14.00">FavoritesPageComponent</text>
</g>
<!-- FavoritesModule -->
<g id="node2" class="node">
<title>FavoritesModule</title>
<polygon fill="#8dd3c7" stroke="black" points="287.65,-187 284.65,-191 263.65,-191 260.65,-187 176.35,-187 176.35,-151 287.65,-151 287.65,-187"/>
<text text-anchor="middle" x="232" y="-164.8" font-family="Times,serif" font-size="14.00">FavoritesModule</text>
</g>
<!-- FavoritesPageComponent&#45;&gt;FavoritesModule -->
<g id="edge1" class="edge">
<title>FavoritesPageComponent&#45;&gt;FavoritesModule</title>
<path fill="none" stroke="black" d="M258.25,-122.11C258.25,-122.11 258.25,-140.99 258.25,-140.99"/>
<polygon fill="black" stroke="black" points="254.75,-140.99 258.25,-150.99 261.75,-140.99 254.75,-140.99"/>
</g>
<!-- SharedModule -->
<g id="node3" class="node">
<title>SharedModule</title>
<polygon fill="#8dd3c7" stroke="black" points="205.42,-122 202.42,-126 181.42,-126 178.42,-122 106.58,-122 106.58,-86 205.42,-86 205.42,-122"/>
<text text-anchor="middle" x="156" y="-99.8" font-family="Times,serif" font-size="14.00">SharedModule</text>
</g>
<!-- SharedModule&#45;&gt;FavoritesModule -->
<g id="edge2" class="edge">
<title>SharedModule&#45;&gt;FavoritesModule</title>
<path fill="none" stroke="black" d="M190.69,-122.11C190.69,-122.11 190.69,-140.99 190.69,-140.99"/>
<polygon fill="black" stroke="black" points="187.19,-140.99 190.69,-150.99 194.19,-140.99 187.19,-140.99"/>
</g>
</g>
</svg>
