<?xml version="1.0" encoding="UTF-8" standalone="no"?>
<!DOCTYPE svg PUBLIC "-//W3C//DTD SVG 1.1//EN"
 "http://www.w3.org/Graphics/SVG/1.1/DTD/svg11.dtd">
<!-- Generated by graphviz version 2.46.0 (20210119.1425)
 -->
<!-- Title: dependencies Pages: 1 -->
<svg width="809pt" height="284pt"
 viewBox="0.00 0.00 809.00 284.00" xmlns="http://www.w3.org/2000/svg" xmlns:xlink="http://www.w3.org/1999/xlink">
<g id="graph0" class="graph" transform="scale(1 1) rotate(0) translate(4 280)">
<title>dependencies</title>
<polygon fill="white" stroke="transparent" points="-4,4 -4,-280 805,-280 805,4 -4,4"/>
<text text-anchor="start" x="379.51" y="-42.4" font-family="sans-serif" font-weight="bold" font-size="14.00">Legend</text>
<polygon fill="#ffffb3" stroke="transparent" points="166.5,-10 166.5,-30 186.5,-30 186.5,-10 166.5,-10"/>
<text text-anchor="start" x="190.13" y="-15.4" font-family="sans-serif" font-size="14.00"> &#160;Declarations</text>
<polygon fill="#8dd3c7" stroke="transparent" points="279.5,-10 279.5,-30 299.5,-30 299.5,-10 279.5,-10"/>
<text text-anchor="start" x="303.23" y="-15.4" font-family="sans-serif" font-size="14.00"> &#160;Module</text>
<polygon fill="#80b1d3" stroke="transparent" points="365.5,-10 365.5,-30 385.5,-30 385.5,-10 365.5,-10"/>
<text text-anchor="start" x="389.28" y="-15.4" font-family="sans-serif" font-size="14.00"> &#160;Bootstrap</text>
<polygon fill="#fdb462" stroke="transparent" points="462.5,-10 462.5,-30 482.5,-30 482.5,-10 462.5,-10"/>
<text text-anchor="start" x="486.17" y="-15.4" font-family="sans-serif" font-size="14.00"> &#160;Providers</text>
<polygon fill="#fb8072" stroke="transparent" points="558.5,-10 558.5,-30 578.5,-30 578.5,-10 558.5,-10"/>
<text text-anchor="start" x="582.23" y="-15.4" font-family="sans-serif" font-size="14.00"> &#160;Exports</text>
<g id="clust1" class="cluster">
<title>cluster_UiModule</title>
<polygon fill="none" stroke="black" stroke-dasharray="1,5" points="8,-70 8,-268 793,-268 793,-70 8,-70"/>
</g>
<g id="clust2" class="cluster">
<title>cluster_UiModule_declarations</title>
<polygon fill="none" stroke="black" points="25,-78 25,-130 776,-130 776,-78 25,-78"/>
</g>
<g id="clust9" class="cluster">
<title>cluster_UiModule_exports</title>
<polygon fill="none" stroke="black" points="16,-208 16,-260 785,-260 785,-208 16,-208"/>
</g>
<!-- BannerComponent -->
<g id="node1" class="node">
<title>BannerComponent</title>
<polygon fill="#ffffb3" stroke="black" points="767.76,-122 646.24,-122 646.24,-86 767.76,-86 767.76,-122"/>
<text text-anchor="middle" x="707" y="-99.8" font-family="Times,serif" font-size="14.00">BannerComponent</text>
</g>
<!-- UiModule -->
<g id="node6" class="node">
<title>UiModule</title>
<polygon fill="#8dd3c7" stroke="black" points="467.55,-187 464.55,-191 443.55,-191 440.55,-187 394.45,-187 394.45,-151 467.55,-151 467.55,-187"/>
<text text-anchor="middle" x="431" y="-164.8" font-family="Times,serif" font-size="14.00">UiModule</text>
</g>
<!-- BannerComponent&#45;&gt;UiModule -->
<g id="edge1" class="edge">
<title>BannerComponent&#45;&gt;UiModule</title>
<path fill="none" stroke="black" d="M729.04,-122.27C729.04,-140.56 729.04,-166 729.04,-166 729.04,-166 477.84,-166 477.84,-166"/>
<polygon fill="black" stroke="black" points="477.84,-162.5 467.84,-166 477.84,-169.5 477.84,-162.5"/>
</g>
<!-- FooterComponent -->
<g id="node2" class="node">
<title>FooterComponent</title>
<polygon fill="#ffffb3" stroke="black" points="627.88,-122 510.12,-122 510.12,-86 627.88,-86 627.88,-122"/>
<text text-anchor="middle" x="569" y="-99.8" font-family="Times,serif" font-size="14.00">FooterComponent</text>
</g>
<!-- FooterComponent&#45;&gt;UiModule -->
<g id="edge2" class="edge">
<title>FooterComponent&#45;&gt;UiModule</title>
<path fill="none" stroke="black" d="M589.4,-122.01C589.4,-138.05 589.4,-159 589.4,-159 589.4,-159 477.74,-159 477.74,-159"/>
<polygon fill="black" stroke="black" points="477.74,-155.5 467.74,-159 477.74,-162.5 477.74,-155.5"/>
</g>
<!-- NavbarComponent -->
<g id="node3" class="node">
<title>NavbarComponent</title>
<polygon fill="#ffffb3" stroke="black" points="492.03,-122 369.97,-122 369.97,-86 492.03,-86 492.03,-122"/>
<text text-anchor="middle" x="431" y="-99.8" font-family="Times,serif" font-size="14.00">NavbarComponent</text>
</g>
<!-- NavbarComponent&#45;&gt;UiModule -->
<g id="edge3" class="edge">
<title>NavbarComponent&#45;&gt;UiModule</title>
<path fill="none" stroke="black" d="M431,-122.11C431,-122.11 431,-140.99 431,-140.99"/>
<polygon fill="black" stroke="black" points="427.5,-140.99 431,-150.99 434.5,-140.99 427.5,-140.99"/>
</g>
<!-- PageIntroHeaderComponent -->
<g id="node4" class="node">
<title>PageIntroHeaderComponent</title>
<polygon fill="#ffffb3" stroke="black" points="352.17,-122 175.83,-122 175.83,-86 352.17,-86 352.17,-122"/>
<text text-anchor="middle" x="264" y="-99.8" font-family="Times,serif" font-size="14.00">PageIntroHeaderComponent</text>
</g>
<!-- PageIntroHeaderComponent&#45;&gt;UiModule -->
<g id="edge4" class="edge">
<title>PageIntroHeaderComponent&#45;&gt;UiModule</title>
<path fill="none" stroke="black" d="M291.86,-122.01C291.86,-138.05 291.86,-159 291.86,-159 291.86,-159 384.44,-159 384.44,-159"/>
<polygon fill="black" stroke="black" points="384.44,-162.5 394.44,-159 384.44,-155.5 384.44,-162.5"/>
</g>
<!-- ProductComponent -->
<g id="node5" class="node">
<title>ProductComponent</title>
<polygon fill="#ffffb3" stroke="black" points="157.38,-122 32.62,-122 32.62,-86 157.38,-86 157.38,-122"/>
<text text-anchor="middle" x="95" y="-99.8" font-family="Times,serif" font-size="14.00">ProductComponent</text>
</g>
<!-- ProductComponent&#45;&gt;UiModule -->
<g id="edge5" class="edge">
<title>ProductComponent&#45;&gt;UiModule</title>
<path fill="none" stroke="black" d="M112.31,-122.27C112.31,-140.56 112.31,-166 112.31,-166 112.31,-166 384.44,-166 384.44,-166"/>
<polygon fill="black" stroke="black" points="384.44,-169.5 394.44,-166 384.44,-162.5 384.44,-169.5"/>
</g>
<!-- BannerComponent  -->
<g id="node7" class="node">
<title>BannerComponent </title>
<polygon fill="#fb8072" stroke="black" points="776.76,-252 651.24,-252 651.24,-216 776.76,-216 776.76,-252"/>
<text text-anchor="middle" x="714" y="-229.8" font-family="Times,serif" font-size="14.00">BannerComponent </text>
</g>
<!-- UiModule&#45;&gt;BannerComponent  -->
<g id="edge6" class="edge">
<title>UiModule&#45;&gt;BannerComponent </title>
<path fill="none" stroke="black" stroke-dasharray="5,2" d="M467.59,-173C539.04,-173 690.21,-173 690.21,-173 690.21,-173 690.21,-205.7 690.21,-205.7"/>
<polygon fill="black" stroke="black" points="686.71,-205.7 690.21,-215.7 693.71,-205.7 686.71,-205.7"/>
</g>
<!-- FooterComponent  -->
<g id="node8" class="node">
<title>FooterComponent </title>
<polygon fill="#fb8072" stroke="black" points="633.88,-252 512.12,-252 512.12,-216 633.88,-216 633.88,-252"/>
<text text-anchor="middle" x="573" y="-229.8" font-family="Times,serif" font-size="14.00">FooterComponent </text>
</g>
<!-- UiModule&#45;&gt;FooterComponent  -->
<g id="edge7" class="edge">
<title>UiModule&#45;&gt;FooterComponent </title>
<path fill="none" stroke="black" stroke-dasharray="5,2" d="M467.61,-180C502.86,-180 550.85,-180 550.85,-180 550.85,-180 550.85,-205.72 550.85,-205.72"/>
<polygon fill="black" stroke="black" points="547.35,-205.72 550.85,-215.72 554.35,-205.72 547.35,-205.72"/>
</g>
<!-- NavbarComponent  -->
<g id="node9" class="node">
<title>NavbarComponent </title>
<polygon fill="#fb8072" stroke="black" points="494.03,-252 367.97,-252 367.97,-216 494.03,-216 494.03,-252"/>
<text text-anchor="middle" x="431" y="-229.8" font-family="Times,serif" font-size="14.00">NavbarComponent </text>
</g>
<!-- UiModule&#45;&gt;NavbarComponent  -->
<g id="edge8" class="edge">
<title>UiModule&#45;&gt;NavbarComponent </title>
<path fill="none" stroke="black" stroke-dasharray="5,2" d="M431,-187.11C431,-187.11 431,-205.99 431,-205.99"/>
<polygon fill="black" stroke="black" points="427.5,-205.99 431,-215.99 434.5,-205.99 427.5,-205.99"/>
</g>
<!-- PageIntroHeaderComponent  -->
<g id="node10" class="node">
<title>PageIntroHeaderComponent </title>
<polygon fill="#fb8072" stroke="black" points="349.67,-252 170.33,-252 170.33,-216 349.67,-216 349.67,-252"/>
<text text-anchor="middle" x="260" y="-229.8" font-family="Times,serif" font-size="14.00">PageIntroHeaderComponent </text>
</g>
<!-- UiModule&#45;&gt;PageIntroHeaderComponent  -->
<g id="edge9" class="edge">
<title>UiModule&#45;&gt;PageIntroHeaderComponent </title>
<path fill="none" stroke="black" stroke-dasharray="5,2" d="M394.39,-180C337.38,-180 233.89,-180 233.89,-180 233.89,-180 233.89,-205.72 233.89,-205.72"/>
<polygon fill="black" stroke="black" points="230.39,-205.72 233.89,-215.72 237.39,-205.72 230.39,-205.72"/>
</g>
<!-- ProductComponent  -->
<g id="node11" class="node">
<title>ProductComponent </title>
<polygon fill="#fb8072" stroke="black" points="152.38,-252 23.62,-252 23.62,-216 152.38,-216 152.38,-252"/>
<text text-anchor="middle" x="88" y="-229.8" font-family="Times,serif" font-size="14.00">ProductComponent </text>
</g>
<!-- UiModule&#45;&gt;ProductComponent  -->
<g id="edge10" class="edge">
<title>UiModule&#45;&gt;ProductComponent </title>
<path fill="none" stroke="black" stroke-dasharray="5,2" d="M394.31,-173C302.93,-173 72.44,-173 72.44,-173 72.44,-173 72.44,-205.7 72.44,-205.7"/>
<polygon fill="black" stroke="black" points="68.94,-205.7 72.44,-215.7 75.94,-205.7 68.94,-205.7"/>
</g>
</g>
</svg>
