<?xml version="1.0" encoding="UTF-8" standalone="no"?>
<!DOCTYPE svg PUBLIC "-//W3C//DTD SVG 1.1//EN"
 "http://www.w3.org/Graphics/SVG/1.1/DTD/svg11.dtd">
<!-- Generated by graphviz version 2.46.0 (20210119.1425)
 -->
<!-- Title: dependencies Pages: 1 -->
<svg width="504pt" height="211pt"
 viewBox="0.00 0.00 504.00 211.00" xmlns="http://www.w3.org/2000/svg" xmlns:xlink="http://www.w3.org/1999/xlink">
<g id="graph0" class="graph" transform="scale(1 1) rotate(0) translate(4 207)">
<title>dependencies</title>
<polygon fill="white" stroke="transparent" points="-4,4 -4,-207 500,-207 500,4 -4,4"/>
<text text-anchor="start" x="227.01" y="-42.4" font-family="sans-serif" font-weight="bold" font-size="14.00">Legend</text>
<polygon fill="#ffffb3" stroke="transparent" points="14,-10 14,-30 34,-30 34,-10 14,-10"/>
<text text-anchor="start" x="37.63" y="-15.4" font-family="sans-serif" font-size="14.00"> &#160;Declarations</text>
<polygon fill="#8dd3c7" stroke="transparent" points="127,-10 127,-30 147,-30 147,-10 127,-10"/>
<text text-anchor="start" x="150.73" y="-15.4" font-family="sans-serif" font-size="14.00"> &#160;Module</text>
<polygon fill="#80b1d3" stroke="transparent" points="213,-10 213,-30 233,-30 233,-10 213,-10"/>
<text text-anchor="start" x="236.78" y="-15.4" font-family="sans-serif" font-size="14.00"> &#160;Bootstrap</text>
<polygon fill="#fdb462" stroke="transparent" points="310,-10 310,-30 330,-30 330,-10 310,-10"/>
<text text-anchor="start" x="333.67" y="-15.4" font-family="sans-serif" font-size="14.00"> &#160;Providers</text>
<polygon fill="#fb8072" stroke="transparent" points="406,-10 406,-30 426,-30 426,-10 406,-10"/>
<text text-anchor="start" x="429.73" y="-15.4" font-family="sans-serif" font-size="14.00"> &#160;Exports</text>
<g id="clust1" class="cluster">
<title>cluster_ShoppingBagModule</title>
<polygon fill="none" stroke="black" stroke-dasharray="1,5" points="79,-70 79,-195 417,-195 417,-70 79,-70"/>
</g>
<g id="clust2" class="cluster">
<title>cluster_ShoppingBagModule_declarations</title>
<polygon fill="none" stroke="black" points="209,-78 209,-130 409,-130 409,-78 209,-78"/>
</g>
<g id="clust4" class="cluster">
<title>cluster_ShoppingBagModule_imports</title>
<polygon fill="none" stroke="black" points="87,-78 87,-130 201,-130 201,-78 87,-78"/>
</g>
<!-- ShoppingBagPageComponent -->
<g id="node1" class="node">
<title>ShoppingBagPageComponent</title>
<polygon fill="#ffffb3" stroke="black" points="401.27,-122 216.73,-122 216.73,-86 401.27,-86 401.27,-122"/>
<text text-anchor="middle" x="309" y="-99.8" font-family="Times,serif" font-size="14.00">ShoppingBagPageComponent</text>
</g>
<!-- ShoppingBagModule -->
<g id="node2" class="node">
<title>ShoppingBagModule</title>
<polygon fill="#8dd3c7" stroke="black" points="299.77,-187 296.77,-191 275.77,-191 272.77,-187 164.23,-187 164.23,-151 299.77,-151 299.77,-187"/>
<text text-anchor="middle" x="232" y="-164.8" font-family="Times,serif" font-size="14.00">ShoppingBagModule</text>
</g>
<!-- ShoppingBagPageComponent&#45;&gt;ShoppingBagModule -->
<g id="edge1" class="edge">
<title>ShoppingBagPageComponent&#45;&gt;ShoppingBagModule</title>
<path fill="none" stroke="black" d="M258.25,-122.11C258.25,-122.11 258.25,-140.99 258.25,-140.99"/>
<polygon fill="black" stroke="black" points="254.75,-140.99 258.25,-150.99 261.75,-140.99 254.75,-140.99"/>
</g>
<!-- SharedModule -->
<g id="node3" class="node">
<title>SharedModule</title>
<polygon fill="#8dd3c7" stroke="black" points="193.42,-122 190.42,-126 169.42,-126 166.42,-122 94.58,-122 94.58,-86 193.42,-86 193.42,-122"/>
<text text-anchor="middle" x="144" y="-99.8" font-family="Times,serif" font-size="14.00">SharedModule</text>
</g>
<!-- SharedModule&#45;&gt;ShoppingBagModule -->
<g id="edge2" class="edge">
<title>SharedModule&#45;&gt;ShoppingBagModule</title>
<path fill="none" stroke="black" d="M178.66,-122.11C178.66,-122.11 178.66,-140.99 178.66,-140.99"/>
<polygon fill="black" stroke="black" points="175.16,-140.99 178.66,-150.99 182.16,-140.99 175.16,-140.99"/>
</g>
</g>
</svg>
