<?xml version="1.0" encoding="UTF-8" standalone="no"?>
<!DOCTYPE svg PUBLIC "-//W3C//DTD SVG 1.1//EN"
 "http://www.w3.org/Graphics/SVG/1.1/DTD/svg11.dtd">
<!-- Generated by graphviz version 2.46.0 (20210119.1425)
 -->
<!-- Title: dependencies Pages: 1 -->
<svg width="712pt" height="211pt"
 viewBox="0.00 0.00 712.00 211.00" xmlns="http://www.w3.org/2000/svg" xmlns:xlink="http://www.w3.org/1999/xlink">
<g id="graph0" class="graph" transform="scale(1 1) rotate(0) translate(4 207)">
<title>dependencies</title>
<polygon fill="white" stroke="transparent" points="-4,4 -4,-207 708,-207 708,4 -4,4"/>
<text text-anchor="start" x="331.01" y="-42.4" font-family="sans-serif" font-weight="bold" font-size="14.00">Legend</text>
<polygon fill="#ffffb3" stroke="transparent" points="118,-10 118,-30 138,-30 138,-10 118,-10"/>
<text text-anchor="start" x="141.63" y="-15.4" font-family="sans-serif" font-size="14.00"> &#160;Declarations</text>
<polygon fill="#8dd3c7" stroke="transparent" points="231,-10 231,-30 251,-30 251,-10 231,-10"/>
<text text-anchor="start" x="254.73" y="-15.4" font-family="sans-serif" font-size="14.00"> &#160;Module</text>
<polygon fill="#80b1d3" stroke="transparent" points="317,-10 317,-30 337,-30 337,-10 317,-10"/>
<text text-anchor="start" x="340.78" y="-15.4" font-family="sans-serif" font-size="14.00"> &#160;Bootstrap</text>
<polygon fill="#fdb462" stroke="transparent" points="414,-10 414,-30 434,-30 434,-10 414,-10"/>
<text text-anchor="start" x="437.67" y="-15.4" font-family="sans-serif" font-size="14.00"> &#160;Providers</text>
<polygon fill="#fb8072" stroke="transparent" points="510,-10 510,-30 530,-30 530,-10 510,-10"/>
<text text-anchor="start" x="533.73" y="-15.4" font-family="sans-serif" font-size="14.00"> &#160;Exports</text>
<g id="clust1" class="cluster">
<title>cluster_ProductsModule</title>
<polygon fill="none" stroke="black" stroke-dasharray="1,5" points="8,-70 8,-195 696,-195 696,-70 8,-70"/>
</g>
<g id="clust6" class="cluster">
<title>cluster_ProductsModule_imports</title>
<polygon fill="none" stroke="black" points="574,-78 574,-130 688,-130 688,-78 574,-78"/>
</g>
<g id="clust2" class="cluster">
<title>cluster_ProductsModule_declarations</title>
<polygon fill="none" stroke="black" points="16,-78 16,-130 566,-130 566,-78 16,-78"/>
</g>
<!-- NewProductFormComponent -->
<g id="node1" class="node">
<title>NewProductFormComponent</title>
<polygon fill="#ffffb3" stroke="black" points="557.64,-122 376.36,-122 376.36,-86 557.64,-86 557.64,-122"/>
<text text-anchor="middle" x="467" y="-99.8" font-family="Times,serif" font-size="14.00">NewProductFormComponent</text>
</g>
<!-- ProductsModule -->
<g id="node4" class="node">
<title>ProductsModule</title>
<polygon fill="#8dd3c7" stroke="black" points="425.04,-187 422.04,-191 401.04,-191 398.04,-187 316.96,-187 316.96,-151 425.04,-151 425.04,-187"/>
<text text-anchor="middle" x="371" y="-164.8" font-family="Times,serif" font-size="14.00">ProductsModule</text>
</g>
<!-- NewProductFormComponent&#45;&gt;ProductsModule -->
<g id="edge1" class="edge">
<title>NewProductFormComponent&#45;&gt;ProductsModule</title>
<path fill="none" stroke="black" d="M400.73,-122.11C400.73,-122.11 400.73,-140.99 400.73,-140.99"/>
<polygon fill="black" stroke="black" points="397.23,-140.99 400.73,-150.99 404.23,-140.99 397.23,-140.99"/>
</g>
<!-- ProductDetailsComponent -->
<g id="node2" class="node">
<title>ProductDetailsComponent</title>
<polygon fill="#ffffb3" stroke="black" points="358.03,-122 193.97,-122 193.97,-86 358.03,-86 358.03,-122"/>
<text text-anchor="middle" x="276" y="-99.8" font-family="Times,serif" font-size="14.00">ProductDetailsComponent</text>
</g>
<!-- ProductDetailsComponent&#45;&gt;ProductsModule -->
<g id="edge2" class="edge">
<title>ProductDetailsComponent&#45;&gt;ProductsModule</title>
<path fill="none" stroke="black" d="M337.5,-122.11C337.5,-122.11 337.5,-140.99 337.5,-140.99"/>
<polygon fill="black" stroke="black" points="334,-140.99 337.5,-150.99 341,-140.99 334,-140.99"/>
</g>
<!-- ProductsListComponent -->
<g id="node3" class="node">
<title>ProductsListComponent</title>
<polygon fill="#ffffb3" stroke="black" points="176.1,-122 23.9,-122 23.9,-86 176.1,-86 176.1,-122"/>
<text text-anchor="middle" x="100" y="-99.8" font-family="Times,serif" font-size="14.00">ProductsListComponent</text>
</g>
<!-- ProductsListComponent&#45;&gt;ProductsModule -->
<g id="edge3" class="edge">
<title>ProductsListComponent&#45;&gt;ProductsModule</title>
<path fill="none" stroke="black" d="M100,-122.11C100,-141.34 100,-169 100,-169 100,-169 306.81,-169 306.81,-169"/>
<polygon fill="black" stroke="black" points="306.81,-172.5 316.81,-169 306.81,-165.5 306.81,-172.5"/>
</g>
<!-- SharedModule -->
<g id="node5" class="node">
<title>SharedModule</title>
<polygon fill="#8dd3c7" stroke="black" points="680.42,-122 677.42,-126 656.42,-126 653.42,-122 581.58,-122 581.58,-86 680.42,-86 680.42,-122"/>
<text text-anchor="middle" x="631" y="-99.8" font-family="Times,serif" font-size="14.00">SharedModule</text>
</g>
<!-- SharedModule&#45;&gt;ProductsModule -->
<g id="edge4" class="edge">
<title>SharedModule&#45;&gt;ProductsModule</title>
<path fill="none" stroke="black" d="M631,-122.11C631,-141.34 631,-169 631,-169 631,-169 435.19,-169 435.19,-169"/>
<polygon fill="black" stroke="black" points="435.19,-165.5 425.19,-169 435.19,-172.5 435.19,-165.5"/>
</g>
</g>
</svg>
