<?xml version="1.0" encoding="UTF-8" standalone="no"?>
<!DOCTYPE svg PUBLIC "-//W3C//DTD SVG 1.1//EN"
 "http://www.w3.org/Graphics/SVG/1.1/DTD/svg11.dtd">
<!-- Generated by graphviz version 2.46.0 (20210119.1425)
 -->
<!-- Title: dependencies Pages: 1 -->
<svg width="1087pt" height="211pt"
 viewBox="0.00 0.00 1087.00 211.00" xmlns="http://www.w3.org/2000/svg" xmlns:xlink="http://www.w3.org/1999/xlink">
<g id="graph0" class="graph" transform="scale(1 1) rotate(0) translate(4 207)">
<title>dependencies</title>
<polygon fill="white" stroke="transparent" points="-4,4 -4,-207 1083,-207 1083,4 -4,4"/>
<text text-anchor="start" x="518.51" y="-42.4" font-family="sans-serif" font-weight="bold" font-size="14.00">Legend</text>
<polygon fill="#ffffb3" stroke="transparent" points="305.5,-10 305.5,-30 325.5,-30 325.5,-10 305.5,-10"/>
<text text-anchor="start" x="329.13" y="-15.4" font-family="sans-serif" font-size="14.00"> &#160;Declarations</text>
<polygon fill="#8dd3c7" stroke="transparent" points="418.5,-10 418.5,-30 438.5,-30 438.5,-10 418.5,-10"/>
<text text-anchor="start" x="442.23" y="-15.4" font-family="sans-serif" font-size="14.00"> &#160;Module</text>
<polygon fill="#80b1d3" stroke="transparent" points="504.5,-10 504.5,-30 524.5,-30 524.5,-10 504.5,-10"/>
<text text-anchor="start" x="528.28" y="-15.4" font-family="sans-serif" font-size="14.00"> &#160;Bootstrap</text>
<polygon fill="#fdb462" stroke="transparent" points="601.5,-10 601.5,-30 621.5,-30 621.5,-10 601.5,-10"/>
<text text-anchor="start" x="625.17" y="-15.4" font-family="sans-serif" font-size="14.00"> &#160;Providers</text>
<polygon fill="#fb8072" stroke="transparent" points="697.5,-10 697.5,-30 717.5,-30 717.5,-10 697.5,-10"/>
<text text-anchor="start" x="721.23" y="-15.4" font-family="sans-serif" font-size="14.00"> &#160;Exports</text>
<g id="clust1" class="cluster">
<title>cluster_ProductsModule</title>
<polygon fill="none" stroke="black" stroke-dasharray="1,5" points="8,-70 8,-195 1071,-195 1071,-70 8,-70"/>
</g>
<g id="clust8" class="cluster">
<title>cluster_ProductsModule_imports</title>
<polygon fill="none" stroke="black" points="949,-78 949,-130 1063,-130 1063,-78 949,-78"/>
</g>
<g id="clust2" class="cluster">
<title>cluster_ProductsModule_declarations</title>
<polygon fill="none" stroke="black" points="16,-78 16,-130 941,-130 941,-78 16,-78"/>
</g>
<!-- ProductDetailsPageComponent -->
<g id="node1" class="node">
<title>ProductDetailsPageComponent</title>
<polygon fill="#ffffb3" stroke="black" points="932.74,-122 741.26,-122 741.26,-86 932.74,-86 932.74,-122"/>
<text text-anchor="middle" x="837" y="-99.8" font-family="Times,serif" font-size="14.00">ProductDetailsPageComponent</text>
</g>
<!-- ProductsModule -->
<g id="node6" class="node">
<title>ProductsModule</title>
<polygon fill="#8dd3c7" stroke="black" points="597.04,-187 594.04,-191 573.04,-191 570.04,-187 488.96,-187 488.96,-151 597.04,-151 597.04,-187"/>
<text text-anchor="middle" x="543" y="-164.8" font-family="Times,serif" font-size="14.00">ProductsModule</text>
</g>
<!-- ProductDetailsPageComponent&#45;&gt;ProductsModule -->
<g id="edge1" class="edge">
<title>ProductDetailsPageComponent&#45;&gt;ProductsModule</title>
<path fill="none" stroke="black" d="M837,-122.02C837,-139.37 837,-163 837,-163 837,-163 607.27,-163 607.27,-163"/>
<polygon fill="black" stroke="black" points="607.27,-159.5 597.27,-163 607.27,-166.5 607.27,-159.5"/>
</g>
<!-- ProductFilterBarComponent -->
<g id="node2" class="node">
<title>ProductFilterBarComponent</title>
<polygon fill="#ffffb3" stroke="black" points="722.92,-122 547.08,-122 547.08,-86 722.92,-86 722.92,-122"/>
<text text-anchor="middle" x="635" y="-99.8" font-family="Times,serif" font-size="14.00">ProductFilterBarComponent</text>
</g>
<!-- ProductFilterBarComponent&#45;&gt;ProductsModule -->
<g id="edge2" class="edge">
<title>ProductFilterBarComponent&#45;&gt;ProductsModule</title>
<path fill="none" stroke="black" d="M572.28,-122.11C572.28,-122.11 572.28,-140.99 572.28,-140.99"/>
<polygon fill="black" stroke="black" points="568.78,-140.99 572.28,-150.99 575.78,-140.99 568.78,-140.99"/>
</g>
<!-- ProductFormComponent -->
<g id="node3" class="node">
<title>ProductFormComponent</title>
<polygon fill="#ffffb3" stroke="black" points="529.71,-122 374.29,-122 374.29,-86 529.71,-86 529.71,-122"/>
<text text-anchor="middle" x="452" y="-99.8" font-family="Times,serif" font-size="14.00">ProductFormComponent</text>
</g>
<!-- ProductFormComponent&#45;&gt;ProductsModule -->
<g id="edge3" class="edge">
<title>ProductFormComponent&#45;&gt;ProductsModule</title>
<path fill="none" stroke="black" d="M509.17,-122.11C509.17,-122.11 509.17,-140.99 509.17,-140.99"/>
<polygon fill="black" stroke="black" points="505.67,-140.99 509.17,-150.99 512.67,-140.99 505.67,-140.99"/>
</g>
<!-- ProductTableComponent -->
<g id="node4" class="node">
<title>ProductTableComponent</title>
<polygon fill="#ffffb3" stroke="black" points="356.25,-122 199.75,-122 199.75,-86 356.25,-86 356.25,-122"/>
<text text-anchor="middle" x="278" y="-99.8" font-family="Times,serif" font-size="14.00">ProductTableComponent</text>
</g>
<!-- ProductTableComponent&#45;&gt;ProductsModule -->
<g id="edge4" class="edge">
<title>ProductTableComponent&#45;&gt;ProductsModule</title>
<path fill="none" stroke="black" d="M278,-122.02C278,-139.37 278,-163 278,-163 278,-163 478.73,-163 478.73,-163"/>
<polygon fill="black" stroke="black" points="478.73,-166.5 488.73,-163 478.73,-159.5 478.73,-166.5"/>
</g>
<!-- ProductsPageComponent -->
<g id="node5" class="node">
<title>ProductsPageComponent</title>
<polygon fill="#ffffb3" stroke="black" points="181.54,-122 24.46,-122 24.46,-86 181.54,-86 181.54,-122"/>
<text text-anchor="middle" x="103" y="-99.8" font-family="Times,serif" font-size="14.00">ProductsPageComponent</text>
</g>
<!-- ProductsPageComponent&#45;&gt;ProductsModule -->
<g id="edge5" class="edge">
<title>ProductsPageComponent&#45;&gt;ProductsModule</title>
<path fill="none" stroke="black" d="M103,-122.28C103,-143.32 103,-175 103,-175 103,-175 478.61,-175 478.61,-175"/>
<polygon fill="black" stroke="black" points="478.61,-178.5 488.61,-175 478.61,-171.5 478.61,-178.5"/>
</g>
<!-- SharedModule -->
<g id="node7" class="node">
<title>SharedModule</title>
<polygon fill="#8dd3c7" stroke="black" points="1055.42,-122 1052.42,-126 1031.42,-126 1028.42,-122 956.58,-122 956.58,-86 1055.42,-86 1055.42,-122"/>
<text text-anchor="middle" x="1006" y="-99.8" font-family="Times,serif" font-size="14.00">SharedModule</text>
</g>
<!-- SharedModule&#45;&gt;ProductsModule -->
<g id="edge6" class="edge">
<title>SharedModule&#45;&gt;ProductsModule</title>
<path fill="none" stroke="black" d="M1006,-122.28C1006,-143.32 1006,-175 1006,-175 1006,-175 607.47,-175 607.47,-175"/>
<polygon fill="black" stroke="black" points="607.47,-171.5 597.47,-175 607.47,-178.5 607.47,-171.5"/>
</g>
</g>
</svg>
