<?xml version="1.0" encoding="UTF-8" standalone="no"?>
<!DOCTYPE svg PUBLIC "-//W3C//DTD SVG 1.1//EN"
 "http://www.w3.org/Graphics/SVG/1.1/DTD/svg11.dtd">
<!-- Generated by graphviz version 2.46.0 (20210119.1425)
 -->
<!-- Title: dependencies Pages: 1 -->
<svg width="846pt" height="284pt"
 viewBox="0.00 0.00 846.00 284.00" xmlns="http://www.w3.org/2000/svg" xmlns:xlink="http://www.w3.org/1999/xlink">
<g id="graph0" class="graph" transform="scale(1 1) rotate(0) translate(4 280)">
<title>dependencies</title>
<polygon fill="white" stroke="transparent" points="-4,4 -4,-280 842,-280 842,4 -4,4"/>
<text text-anchor="start" x="398.01" y="-42.4" font-family="sans-serif" font-weight="bold" font-size="14.00">Legend</text>
<polygon fill="#ffffb3" stroke="transparent" points="185,-10 185,-30 205,-30 205,-10 185,-10"/>
<text text-anchor="start" x="208.63" y="-15.4" font-family="sans-serif" font-size="14.00"> &#160;Declarations</text>
<polygon fill="#8dd3c7" stroke="transparent" points="298,-10 298,-30 318,-30 318,-10 298,-10"/>
<text text-anchor="start" x="321.73" y="-15.4" font-family="sans-serif" font-size="14.00"> &#160;Module</text>
<polygon fill="#80b1d3" stroke="transparent" points="384,-10 384,-30 404,-30 404,-10 384,-10"/>
<text text-anchor="start" x="407.78" y="-15.4" font-family="sans-serif" font-size="14.00"> &#160;Bootstrap</text>
<polygon fill="#fdb462" stroke="transparent" points="481,-10 481,-30 501,-30 501,-10 481,-10"/>
<text text-anchor="start" x="504.67" y="-15.4" font-family="sans-serif" font-size="14.00"> &#160;Providers</text>
<polygon fill="#fb8072" stroke="transparent" points="577,-10 577,-30 597,-30 597,-10 577,-10"/>
<text text-anchor="start" x="600.73" y="-15.4" font-family="sans-serif" font-size="14.00"> &#160;Exports</text>
<g id="clust1" class="cluster">
<title>cluster_CategoryModule</title>
<polygon fill="none" stroke="black" stroke-dasharray="1,5" points="8,-70 8,-268 830,-268 830,-70 8,-70"/>
</g>
<g id="clust7" class="cluster">
<title>cluster_CategoryModule_imports</title>
<polygon fill="none" stroke="black" points="732,-78 732,-130 822,-130 822,-78 732,-78"/>
</g>
<g id="clust2" class="cluster">
<title>cluster_CategoryModule_declarations</title>
<polygon fill="none" stroke="black" points="16,-78 16,-130 724,-130 724,-78 16,-78"/>
</g>
<g id="clust8" class="cluster">
<title>cluster_CategoryModule_exports</title>
<polygon fill="none" stroke="black" points="396,-208 396,-260 570,-260 570,-208 396,-208"/>
</g>
<!-- BannersListComponent -->
<g id="node1" class="node">
<title>BannersListComponent</title>
<polygon fill="#ffffb3" stroke="black" points="716.48,-122 567.52,-122 567.52,-86 716.48,-86 716.48,-122"/>
<text text-anchor="middle" x="642" y="-99.8" font-family="Times,serif" font-size="14.00">BannersListComponent</text>
</g>
<!-- CategoryModule -->
<g id="node5" class="node">
<title>CategoryModule</title>
<polygon fill="#8dd3c7" stroke="black" points="538.37,-187 535.37,-191 514.37,-191 511.37,-187 427.63,-187 427.63,-151 538.37,-151 538.37,-187"/>
<text text-anchor="middle" x="483" y="-164.8" font-family="Times,serif" font-size="14.00">CategoryModule</text>
</g>
<!-- BannersListComponent&#45;&gt;CategoryModule -->
<g id="edge1" class="edge">
<title>BannersListComponent&#45;&gt;CategoryModule</title>
<path fill="none" stroke="black" d="M642,-122.02C642,-139.37 642,-163 642,-163 642,-163 548.61,-163 548.61,-163"/>
<polygon fill="black" stroke="black" points="548.61,-159.5 538.61,-163 548.61,-166.5 548.61,-159.5"/>
</g>
<!-- CategoryComponent -->
<g id="node2" class="node">
<title>CategoryComponent</title>
<polygon fill="#ffffb3" stroke="black" points="549.15,-122 416.85,-122 416.85,-86 549.15,-86 549.15,-122"/>
<text text-anchor="middle" x="483" y="-99.8" font-family="Times,serif" font-size="14.00">CategoryComponent</text>
</g>
<!-- CategoryComponent&#45;&gt;CategoryModule -->
<g id="edge2" class="edge">
<title>CategoryComponent&#45;&gt;CategoryModule</title>
<path fill="none" stroke="black" d="M483,-122.11C483,-122.11 483,-140.99 483,-140.99"/>
<polygon fill="black" stroke="black" points="479.5,-140.99 483,-150.99 486.5,-140.99 479.5,-140.99"/>
</g>
<!-- CategoryListComponent -->
<g id="node3" class="node">
<title>CategoryListComponent</title>
<polygon fill="#ffffb3" stroke="black" points="398.43,-122 243.57,-122 243.57,-86 398.43,-86 398.43,-122"/>
<text text-anchor="middle" x="321" y="-99.8" font-family="Times,serif" font-size="14.00">CategoryListComponent</text>
</g>
<!-- CategoryListComponent&#45;&gt;CategoryModule -->
<g id="edge3" class="edge">
<title>CategoryListComponent&#45;&gt;CategoryModule</title>
<path fill="none" stroke="black" d="M321,-122.02C321,-139.37 321,-163 321,-163 321,-163 417.25,-163 417.25,-163"/>
<polygon fill="black" stroke="black" points="417.25,-166.5 427.25,-163 417.25,-159.5 417.25,-166.5"/>
</g>
<!-- CategoryListElementComponent -->
<g id="node4" class="node">
<title>CategoryListElementComponent</title>
<polygon fill="#ffffb3" stroke="black" points="225.58,-122 24.42,-122 24.42,-86 225.58,-86 225.58,-122"/>
<text text-anchor="middle" x="125" y="-99.8" font-family="Times,serif" font-size="14.00">CategoryListElementComponent</text>
</g>
<!-- CategoryListElementComponent&#45;&gt;CategoryModule -->
<g id="edge4" class="edge">
<title>CategoryListElementComponent&#45;&gt;CategoryModule</title>
<path fill="none" stroke="black" d="M125,-122.28C125,-143.32 125,-175 125,-175 125,-175 417.46,-175 417.46,-175"/>
<polygon fill="black" stroke="black" points="417.46,-178.5 427.46,-175 417.46,-171.5 417.46,-178.5"/>
</g>
<!-- CategoryListComponent  -->
<g id="node7" class="node">
<title>CategoryListComponent </title>
<polygon fill="#fb8072" stroke="black" points="561.93,-252 404.07,-252 404.07,-216 561.93,-216 561.93,-252"/>
<text text-anchor="middle" x="483" y="-229.8" font-family="Times,serif" font-size="14.00">CategoryListComponent </text>
</g>
<!-- CategoryModule&#45;&gt;CategoryListComponent  -->
<g id="edge6" class="edge">
<title>CategoryModule&#45;&gt;CategoryListComponent </title>
<path fill="none" stroke="black" stroke-dasharray="5,2" d="M483,-187.11C483,-187.11 483,-205.99 483,-205.99"/>
<polygon fill="black" stroke="black" points="479.5,-205.99 483,-215.99 486.5,-205.99 479.5,-205.99"/>
</g>
<!-- UiModule -->
<g id="node6" class="node">
<title>UiModule</title>
<polygon fill="#8dd3c7" stroke="black" points="813.55,-122 810.55,-126 789.55,-126 786.55,-122 740.45,-122 740.45,-86 813.55,-86 813.55,-122"/>
<text text-anchor="middle" x="777" y="-99.8" font-family="Times,serif" font-size="14.00">UiModule</text>
</g>
<!-- UiModule&#45;&gt;CategoryModule -->
<g id="edge5" class="edge">
<title>UiModule&#45;&gt;CategoryModule</title>
<path fill="none" stroke="black" d="M777,-122.28C777,-143.32 777,-175 777,-175 777,-175 548.64,-175 548.64,-175"/>
<polygon fill="black" stroke="black" points="548.64,-171.5 538.64,-175 548.64,-178.5 548.64,-171.5"/>
</g>
</g>
</svg>
