<?xml version="1.0" encoding="UTF-8" standalone="no"?>
<!DOCTYPE svg PUBLIC "-//W3C//DTD SVG 1.1//EN"
 "http://www.w3.org/Graphics/SVG/1.1/DTD/svg11.dtd">
<!-- Generated by graphviz version 2.46.0 (20210119.1425)
 -->
<!-- Title: dependencies Pages: 1 -->
<svg width="3337pt" height="211pt"
 viewBox="0.00 0.00 3337.00 211.00" xmlns="http://www.w3.org/2000/svg" xmlns:xlink="http://www.w3.org/1999/xlink">
<g id="graph0" class="graph" transform="scale(1 1) rotate(0) translate(4 207)">
<title>dependencies</title>
<polygon fill="white" stroke="transparent" points="-4,4 -4,-207 3333,-207 3333,4 -4,4"/>
<text text-anchor="start" x="1643.51" y="-42.4" font-family="sans-serif" font-weight="bold" font-size="14.00">Legend</text>
<polygon fill="#ffffb3" stroke="transparent" points="1430.5,-10 1430.5,-30 1450.5,-30 1450.5,-10 1430.5,-10"/>
<text text-anchor="start" x="1454.13" y="-15.4" font-family="sans-serif" font-size="14.00"> &#160;Declarations</text>
<polygon fill="#8dd3c7" stroke="transparent" points="1543.5,-10 1543.5,-30 1563.5,-30 1563.5,-10 1543.5,-10"/>
<text text-anchor="start" x="1567.23" y="-15.4" font-family="sans-serif" font-size="14.00"> &#160;Module</text>
<polygon fill="#80b1d3" stroke="transparent" points="1629.5,-10 1629.5,-30 1649.5,-30 1649.5,-10 1629.5,-10"/>
<text text-anchor="start" x="1653.28" y="-15.4" font-family="sans-serif" font-size="14.00"> &#160;Bootstrap</text>
<polygon fill="#fdb462" stroke="transparent" points="1726.5,-10 1726.5,-30 1746.5,-30 1746.5,-10 1726.5,-10"/>
<text text-anchor="start" x="1750.17" y="-15.4" font-family="sans-serif" font-size="14.00"> &#160;Providers</text>
<polygon fill="#fb8072" stroke="transparent" points="1822.5,-10 1822.5,-30 1842.5,-30 1842.5,-10 1822.5,-10"/>
<text text-anchor="start" x="1846.23" y="-15.4" font-family="sans-serif" font-size="14.00"> &#160;Exports</text>
<g id="clust1" class="cluster">
<title>cluster_AccountModule</title>
<polygon fill="none" stroke="black" stroke-dasharray="1,5" points="8,-70 8,-195 3321,-195 3321,-70 8,-70"/>
</g>
<g id="clust2" class="cluster">
<title>cluster_AccountModule_declarations</title>
<polygon fill="none" stroke="black" points="400,-78 400,-130 3313,-130 3313,-78 400,-78"/>
</g>
<g id="clust17" class="cluster">
<title>cluster_AccountModule_imports</title>
<polygon fill="none" stroke="black" points="16,-78 16,-130 392,-130 392,-78 16,-78"/>
</g>
<!-- AccountInformationPageComponent -->
<g id="node1" class="node">
<title>AccountInformationPageComponent</title>
<polygon fill="#ffffb3" stroke="black" points="3305.34,-122 3082.66,-122 3082.66,-86 3305.34,-86 3305.34,-122"/>
<text text-anchor="middle" x="3194" y="-99.8" font-family="Times,serif" font-size="14.00">AccountInformationPageComponent</text>
</g>
<!-- AccountModule -->
<g id="node15" class="node">
<title>AccountModule</title>
<polygon fill="#8dd3c7" stroke="black" points="1632.48,-187 1629.48,-191 1608.48,-191 1605.48,-187 1525.52,-187 1525.52,-151 1632.48,-151 1632.48,-187"/>
<text text-anchor="middle" x="1579" y="-164.8" font-family="Times,serif" font-size="14.00">AccountModule</text>
</g>
<!-- AccountInformationPageComponent&#45;&gt;AccountModule -->
<g id="edge1" class="edge">
<title>AccountInformationPageComponent&#45;&gt;AccountModule</title>
<path fill="none" stroke="black" d="M3194,-122.32C3194,-145.66 3194,-183 3194,-183 3194,-183 1642.73,-183 1642.73,-183"/>
<polygon fill="black" stroke="black" points="1642.73,-179.5 1632.73,-183 1642.73,-186.5 1642.73,-179.5"/>
</g>
<!-- AccountInformationWrapperComponent -->
<g id="node2" class="node">
<title>AccountInformationWrapperComponent</title>
<polygon fill="#ffffb3" stroke="black" points="3064.09,-122 2819.91,-122 2819.91,-86 3064.09,-86 3064.09,-122"/>
<text text-anchor="middle" x="2942" y="-99.8" font-family="Times,serif" font-size="14.00">AccountInformationWrapperComponent</text>
</g>
<!-- AccountInformationWrapperComponent&#45;&gt;AccountModule -->
<g id="edge2" class="edge">
<title>AccountInformationWrapperComponent&#45;&gt;AccountModule</title>
<path fill="none" stroke="black" d="M2942,-122.16C2942,-144.35 2942,-179 2942,-179 2942,-179 1642.85,-179 1642.85,-179"/>
<polygon fill="black" stroke="black" points="1642.85,-175.5 1632.85,-179 1642.85,-182.5 1642.85,-175.5"/>
</g>
<!-- AccountPageComponent -->
<g id="node3" class="node">
<title>AccountPageComponent</title>
<polygon fill="#ffffb3" stroke="black" points="2801.97,-122 2646.03,-122 2646.03,-86 2801.97,-86 2801.97,-122"/>
<text text-anchor="middle" x="2724" y="-99.8" font-family="Times,serif" font-size="14.00">AccountPageComponent</text>
</g>
<!-- AccountPageComponent&#45;&gt;AccountModule -->
<g id="edge3" class="edge">
<title>AccountPageComponent&#45;&gt;AccountModule</title>
<path fill="none" stroke="black" d="M2724,-122.28C2724,-143.32 2724,-175 2724,-175 2724,-175 1642.69,-175 1642.69,-175"/>
<polygon fill="black" stroke="black" points="1642.69,-171.5 1632.69,-175 1642.69,-178.5 1642.69,-171.5"/>
</g>
<!-- AccountPageHeaderComponent -->
<g id="node4" class="node">
<title>AccountPageHeaderComponent</title>
<polygon fill="#ffffb3" stroke="black" points="2628.38,-122 2431.62,-122 2431.62,-86 2628.38,-86 2628.38,-122"/>
<text text-anchor="middle" x="2530" y="-99.8" font-family="Times,serif" font-size="14.00">AccountPageHeaderComponent</text>
</g>
<!-- AccountPageHeaderComponent&#45;&gt;AccountModule -->
<g id="edge4" class="edge">
<title>AccountPageHeaderComponent&#45;&gt;AccountModule</title>
<path fill="none" stroke="black" d="M2530,-122.31C2530,-142.15 2530,-171 2530,-171 2530,-171 1642.51,-171 1642.51,-171"/>
<polygon fill="black" stroke="black" points="1642.51,-167.5 1632.51,-171 1642.51,-174.5 1642.51,-167.5"/>
</g>
<!-- AccountTypeEditPageComponent -->
<g id="node5" class="node">
<title>AccountTypeEditPageComponent</title>
<polygon fill="#ffffb3" stroke="black" points="2414.07,-122 2205.93,-122 2205.93,-86 2414.07,-86 2414.07,-122"/>
<text text-anchor="middle" x="2310" y="-99.8" font-family="Times,serif" font-size="14.00">AccountTypeEditPageComponent</text>
</g>
<!-- AccountTypeEditPageComponent&#45;&gt;AccountModule -->
<g id="edge5" class="edge">
<title>AccountTypeEditPageComponent&#45;&gt;AccountModule</title>
<path fill="none" stroke="black" d="M2310,-122.22C2310,-140.83 2310,-167 2310,-167 2310,-167 1642.75,-167 1642.75,-167"/>
<polygon fill="black" stroke="black" points="1642.75,-163.5 1632.75,-167 1642.75,-170.5 1642.75,-163.5"/>
</g>
<!-- EditDataWrapperComponent -->
<g id="node6" class="node">
<title>EditDataWrapperComponent</title>
<polygon fill="#ffffb3" stroke="black" points="2188.06,-122 2007.94,-122 2007.94,-86 2188.06,-86 2188.06,-122"/>
<text text-anchor="middle" x="2098" y="-99.8" font-family="Times,serif" font-size="14.00">EditDataWrapperComponent</text>
</g>
<!-- EditDataWrapperComponent&#45;&gt;AccountModule -->
<g id="edge6" class="edge">
<title>EditDataWrapperComponent&#45;&gt;AccountModule</title>
<path fill="none" stroke="black" d="M2098,-122.02C2098,-139.37 2098,-163 2098,-163 2098,-163 1642.59,-163 1642.59,-163"/>
<polygon fill="black" stroke="black" points="1642.59,-159.5 1632.59,-163 1642.59,-166.5 1642.59,-159.5"/>
</g>
<!-- EmailEditPageComponent -->
<g id="node7" class="node">
<title>EmailEditPageComponent</title>
<polygon fill="#ffffb3" stroke="black" points="1989.82,-122 1824.18,-122 1824.18,-86 1989.82,-86 1989.82,-122"/>
<text text-anchor="middle" x="1907" y="-99.8" font-family="Times,serif" font-size="14.00">EmailEditPageComponent</text>
</g>
<!-- EmailEditPageComponent&#45;&gt;AccountModule -->
<g id="edge7" class="edge">
<title>EmailEditPageComponent&#45;&gt;AccountModule</title>
<path fill="none" stroke="black" d="M1907,-122.01C1907,-138.05 1907,-159 1907,-159 1907,-159 1642.8,-159 1642.8,-159"/>
<polygon fill="black" stroke="black" points="1642.8,-155.5 1632.8,-159 1642.8,-162.5 1642.8,-155.5"/>
</g>
<!-- HelpPageComponent -->
<g id="node8" class="node">
<title>HelpPageComponent</title>
<polygon fill="#ffffb3" stroke="black" points="1805.76,-122 1670.24,-122 1670.24,-86 1805.76,-86 1805.76,-122"/>
<text text-anchor="middle" x="1738" y="-99.8" font-family="Times,serif" font-size="14.00">HelpPageComponent</text>
</g>
<!-- HelpPageComponent&#45;&gt;AccountModule -->
<g id="edge8" class="edge">
<title>HelpPageComponent&#45;&gt;AccountModule</title>
<path fill="none" stroke="black" d="M1738,-122.12C1738,-136.78 1738,-155 1738,-155 1738,-155 1642.83,-155 1642.83,-155"/>
<polygon fill="black" stroke="black" points="1642.83,-151.5 1632.83,-155 1642.83,-158.5 1642.83,-151.5"/>
</g>
<!-- OrdersPageComponent -->
<g id="node9" class="node">
<title>OrdersPageComponent</title>
<polygon fill="#ffffb3" stroke="black" points="1652.13,-122 1505.87,-122 1505.87,-86 1652.13,-86 1652.13,-122"/>
<text text-anchor="middle" x="1579" y="-99.8" font-family="Times,serif" font-size="14.00">OrdersPageComponent</text>
</g>
<!-- OrdersPageComponent&#45;&gt;AccountModule -->
<g id="edge9" class="edge">
<title>OrdersPageComponent&#45;&gt;AccountModule</title>
<path fill="none" stroke="black" d="M1579,-122.11C1579,-122.11 1579,-140.99 1579,-140.99"/>
<polygon fill="black" stroke="black" points="1575.5,-140.99 1579,-150.99 1582.5,-140.99 1575.5,-140.99"/>
</g>
<!-- PasswordEditPageComponent -->
<g id="node10" class="node">
<title>PasswordEditPageComponent</title>
<polygon fill="#ffffb3" stroke="black" points="1487.53,-122 1302.47,-122 1302.47,-86 1487.53,-86 1487.53,-122"/>
<text text-anchor="middle" x="1395" y="-99.8" font-family="Times,serif" font-size="14.00">PasswordEditPageComponent</text>
</g>
<!-- PasswordEditPageComponent&#45;&gt;AccountModule -->
<g id="edge10" class="edge">
<title>PasswordEditPageComponent&#45;&gt;AccountModule</title>
<path fill="none" stroke="black" d="M1395,-122.12C1395,-136.78 1395,-155 1395,-155 1395,-155 1515.28,-155 1515.28,-155"/>
<polygon fill="black" stroke="black" points="1515.28,-158.5 1525.28,-155 1515.28,-151.5 1515.28,-158.5"/>
</g>
<!-- PhoneNumberEditPageComponent -->
<g id="node11" class="node">
<title>PhoneNumberEditPageComponent</title>
<polygon fill="#ffffb3" stroke="black" points="1284.25,-122 1071.75,-122 1071.75,-86 1284.25,-86 1284.25,-122"/>
<text text-anchor="middle" x="1178" y="-99.8" font-family="Times,serif" font-size="14.00">PhoneNumberEditPageComponent</text>
</g>
<!-- PhoneNumberEditPageComponent&#45;&gt;AccountModule -->
<g id="edge11" class="edge">
<title>PhoneNumberEditPageComponent&#45;&gt;AccountModule</title>
<path fill="none" stroke="black" d="M1178,-122.01C1178,-138.05 1178,-159 1178,-159 1178,-159 1515.34,-159 1515.34,-159"/>
<polygon fill="black" stroke="black" points="1515.34,-162.5 1525.34,-159 1515.34,-155.5 1515.34,-162.5"/>
</g>
<!-- ReturnsAndRefundsPageComponent -->
<g id="node12" class="node">
<title>ReturnsAndRefundsPageComponent</title>
<polygon fill="#ffffb3" stroke="black" points="1053.35,-122 830.65,-122 830.65,-86 1053.35,-86 1053.35,-122"/>
<text text-anchor="middle" x="942" y="-99.8" font-family="Times,serif" font-size="14.00">ReturnsAndRefundsPageComponent</text>
</g>
<!-- ReturnsAndRefundsPageComponent&#45;&gt;AccountModule -->
<g id="edge12" class="edge">
<title>ReturnsAndRefundsPageComponent&#45;&gt;AccountModule</title>
<path fill="none" stroke="black" d="M942,-122.02C942,-139.37 942,-163 942,-163 942,-163 1515.51,-163 1515.51,-163"/>
<polygon fill="black" stroke="black" points="1515.51,-166.5 1525.51,-163 1515.51,-159.5 1515.51,-166.5"/>
</g>
<!-- SecurityAndSettingsPageComponent -->
<g id="node13" class="node">
<title>SecurityAndSettingsPageComponent</title>
<polygon fill="#ffffb3" stroke="black" points="812.42,-122 587.58,-122 587.58,-86 812.42,-86 812.42,-122"/>
<text text-anchor="middle" x="700" y="-99.8" font-family="Times,serif" font-size="14.00">SecurityAndSettingsPageComponent</text>
</g>
<!-- SecurityAndSettingsPageComponent&#45;&gt;AccountModule -->
<g id="edge13" class="edge">
<title>SecurityAndSettingsPageComponent&#45;&gt;AccountModule</title>
<path fill="none" stroke="black" d="M700,-122.22C700,-140.83 700,-167 700,-167 700,-167 1515.34,-167 1515.34,-167"/>
<polygon fill="black" stroke="black" points="1515.34,-170.5 1525.34,-167 1515.34,-163.5 1515.34,-170.5"/>
</g>
<!-- UsernameEditComponent -->
<g id="node14" class="node">
<title>UsernameEditComponent</title>
<polygon fill="#ffffb3" stroke="black" points="569.91,-122 408.09,-122 408.09,-86 569.91,-86 569.91,-122"/>
<text text-anchor="middle" x="489" y="-99.8" font-family="Times,serif" font-size="14.00">UsernameEditComponent</text>
</g>
<!-- UsernameEditComponent&#45;&gt;AccountModule -->
<g id="edge14" class="edge">
<title>UsernameEditComponent&#45;&gt;AccountModule</title>
<path fill="none" stroke="black" d="M489,-122.31C489,-142.15 489,-171 489,-171 489,-171 1515.32,-171 1515.32,-171"/>
<polygon fill="black" stroke="black" points="1515.32,-174.5 1525.32,-171 1515.32,-167.5 1515.32,-174.5"/>
</g>
<!-- AccountRoutingModule -->
<g id="node16" class="node">
<title>AccountRoutingModule</title>
<polygon fill="#8dd3c7" stroke="black" points="384.09,-122 381.09,-126 360.09,-126 357.09,-122 231.91,-122 231.91,-86 384.09,-86 384.09,-122"/>
<text text-anchor="middle" x="308" y="-99.8" font-family="Times,serif" font-size="14.00">AccountRoutingModule</text>
</g>
<!-- AccountRoutingModule&#45;&gt;AccountModule -->
<g id="edge15" class="edge">
<title>AccountRoutingModule&#45;&gt;AccountModule</title>
<path fill="none" stroke="black" d="M308,-122.28C308,-143.32 308,-175 308,-175 308,-175 1515.2,-175 1515.2,-175"/>
<polygon fill="black" stroke="black" points="1515.2,-178.5 1525.2,-175 1515.2,-171.5 1515.2,-178.5"/>
</g>
<!-- SharedModule -->
<g id="node17" class="node">
<title>SharedModule</title>
<polygon fill="#8dd3c7" stroke="black" points="214.42,-122 211.42,-126 190.42,-126 187.42,-122 115.58,-122 115.58,-86 214.42,-86 214.42,-122"/>
<text text-anchor="middle" x="165" y="-99.8" font-family="Times,serif" font-size="14.00">SharedModule</text>
</g>
<!-- SharedModule&#45;&gt;AccountModule -->
<g id="edge16" class="edge">
<title>SharedModule&#45;&gt;AccountModule</title>
<path fill="none" stroke="black" d="M165,-122.16C165,-144.35 165,-179 165,-179 165,-179 1515.3,-179 1515.3,-179"/>
<polygon fill="black" stroke="black" points="1515.3,-182.5 1525.3,-179 1515.3,-175.5 1515.3,-182.5"/>
</g>
<!-- UiModule -->
<g id="node18" class="node">
<title>UiModule</title>
<polygon fill="#8dd3c7" stroke="black" points="97.55,-122 94.55,-126 73.55,-126 70.55,-122 24.45,-122 24.45,-86 97.55,-86 97.55,-122"/>
<text text-anchor="middle" x="61" y="-99.8" font-family="Times,serif" font-size="14.00">UiModule</text>
</g>
<!-- UiModule&#45;&gt;AccountModule -->
<g id="edge17" class="edge">
<title>UiModule&#45;&gt;AccountModule</title>
<path fill="none" stroke="black" d="M61,-122.32C61,-145.66 61,-183 61,-183 61,-183 1515.42,-183 1515.42,-183"/>
<polygon fill="black" stroke="black" points="1515.42,-186.5 1525.42,-183 1515.42,-179.5 1515.42,-186.5"/>
</g>
</g>
</svg>
