<?xml version="1.0" encoding="UTF-8" standalone="no"?>
<!DOCTYPE svg PUBLIC "-//W3C//DTD SVG 1.1//EN"
 "http://www.w3.org/Graphics/SVG/1.1/DTD/svg11.dtd">
<!-- Generated by graphviz version 2.46.0 (20210119.1425)
 -->
<!-- Title: dependencies Pages: 1 -->
<svg width="2713pt" height="211pt"
 viewBox="0.00 0.00 2713.00 211.00" xmlns="http://www.w3.org/2000/svg" xmlns:xlink="http://www.w3.org/1999/xlink">
<g id="graph0" class="graph" transform="scale(1 1) rotate(0) translate(4 207)">
<title>dependencies</title>
<polygon fill="white" stroke="transparent" points="-4,4 -4,-207 2709,-207 2709,4 -4,4"/>
<text text-anchor="start" x="1331.51" y="-42.4" font-family="sans-serif" font-weight="bold" font-size="14.00">Legend</text>
<polygon fill="#ffffb3" stroke="transparent" points="1118.5,-10 1118.5,-30 1138.5,-30 1138.5,-10 1118.5,-10"/>
<text text-anchor="start" x="1142.13" y="-15.4" font-family="sans-serif" font-size="14.00"> &#160;Declarations</text>
<polygon fill="#8dd3c7" stroke="transparent" points="1231.5,-10 1231.5,-30 1251.5,-30 1251.5,-10 1231.5,-10"/>
<text text-anchor="start" x="1255.23" y="-15.4" font-family="sans-serif" font-size="14.00"> &#160;Module</text>
<polygon fill="#80b1d3" stroke="transparent" points="1317.5,-10 1317.5,-30 1337.5,-30 1337.5,-10 1317.5,-10"/>
<text text-anchor="start" x="1341.28" y="-15.4" font-family="sans-serif" font-size="14.00"> &#160;Bootstrap</text>
<polygon fill="#fdb462" stroke="transparent" points="1414.5,-10 1414.5,-30 1434.5,-30 1434.5,-10 1414.5,-10"/>
<text text-anchor="start" x="1438.17" y="-15.4" font-family="sans-serif" font-size="14.00"> &#160;Providers</text>
<polygon fill="#fb8072" stroke="transparent" points="1510.5,-10 1510.5,-30 1530.5,-30 1530.5,-10 1510.5,-10"/>
<text text-anchor="start" x="1534.23" y="-15.4" font-family="sans-serif" font-size="14.00"> &#160;Exports</text>
<g id="clust1" class="cluster">
<title>cluster_AccountModule</title>
<polygon fill="none" stroke="black" stroke-dasharray="1,5" points="8,-70 8,-195 2697,-195 2697,-70 8,-70"/>
</g>
<g id="clust2" class="cluster">
<title>cluster_AccountModule_declarations</title>
<polygon fill="none" stroke="black" points="114,-78 114,-130 2689,-130 2689,-78 114,-78"/>
</g>
<g id="clust16" class="cluster">
<title>cluster_AccountModule_imports</title>
<polygon fill="none" stroke="black" points="16,-78 16,-130 106,-130 106,-78 16,-78"/>
</g>
<!-- AccountComponent -->
<g id="node1" class="node">
<title>AccountComponent</title>
<polygon fill="#ffffb3" stroke="black" points="2681.26,-122 2552.74,-122 2552.74,-86 2681.26,-86 2681.26,-122"/>
<text text-anchor="middle" x="2617" y="-99.8" font-family="Times,serif" font-size="14.00">AccountComponent</text>
</g>
<!-- AccountModule -->
<g id="node14" class="node">
<title>AccountModule</title>
<polygon fill="#8dd3c7" stroke="black" points="1316.48,-187 1313.48,-191 1292.48,-191 1289.48,-187 1209.52,-187 1209.52,-151 1316.48,-151 1316.48,-187"/>
<text text-anchor="middle" x="1263" y="-164.8" font-family="Times,serif" font-size="14.00">AccountModule</text>
</g>
<!-- AccountComponent&#45;&gt;AccountModule -->
<g id="edge1" class="edge">
<title>AccountComponent&#45;&gt;AccountModule</title>
<path fill="none" stroke="black" d="M2617,-122.09C2617,-145.13 2617,-182 2617,-182 2617,-182 1326.5,-182 1326.5,-182"/>
<polygon fill="black" stroke="black" points="1326.5,-178.5 1316.5,-182 1326.5,-185.5 1326.5,-178.5"/>
</g>
<!-- AccountInformationPageComponent -->
<g id="node2" class="node">
<title>AccountInformationPageComponent</title>
<polygon fill="#ffffb3" stroke="black" points="2534.34,-122 2311.66,-122 2311.66,-86 2534.34,-86 2534.34,-122"/>
<text text-anchor="middle" x="2423" y="-99.8" font-family="Times,serif" font-size="14.00">AccountInformationPageComponent</text>
</g>
<!-- AccountInformationPageComponent&#45;&gt;AccountModule -->
<g id="edge2" class="edge">
<title>AccountInformationPageComponent&#45;&gt;AccountModule</title>
<path fill="none" stroke="black" d="M2423,-122.04C2423,-143.66 2423,-177 2423,-177 2423,-177 1326.62,-177 1326.62,-177"/>
<polygon fill="black" stroke="black" points="1326.62,-173.5 1316.62,-177 1326.62,-180.5 1326.62,-173.5"/>
</g>
<!-- AccountInformationWrapperComponent -->
<g id="node3" class="node">
<title>AccountInformationWrapperComponent</title>
<polygon fill="#ffffb3" stroke="black" points="2293.09,-122 2048.91,-122 2048.91,-86 2293.09,-86 2293.09,-122"/>
<text text-anchor="middle" x="2171" y="-99.8" font-family="Times,serif" font-size="14.00">AccountInformationWrapperComponent</text>
</g>
<!-- AccountInformationWrapperComponent&#45;&gt;AccountModule -->
<g id="edge3" class="edge">
<title>AccountInformationWrapperComponent&#45;&gt;AccountModule</title>
<path fill="none" stroke="black" d="M2171,-122.22C2171,-142.37 2171,-172 2171,-172 2171,-172 1326.74,-172 1326.74,-172"/>
<polygon fill="black" stroke="black" points="1326.74,-168.5 1316.74,-172 1326.74,-175.5 1326.74,-168.5"/>
</g>
<!-- AccountPageComponent -->
<g id="node4" class="node">
<title>AccountPageComponent</title>
<polygon fill="#ffffb3" stroke="black" points="2030.97,-122 1875.03,-122 1875.03,-86 2030.97,-86 2030.97,-122"/>
<text text-anchor="middle" x="1953" y="-99.8" font-family="Times,serif" font-size="14.00">AccountPageComponent</text>
</g>
<!-- AccountPageComponent&#45;&gt;AccountModule -->
<g id="edge4" class="edge">
<title>AccountPageComponent&#45;&gt;AccountModule</title>
<path fill="none" stroke="black" d="M1953,-122.22C1953,-140.83 1953,-167 1953,-167 1953,-167 1326.57,-167 1326.57,-167"/>
<polygon fill="black" stroke="black" points="1326.57,-163.5 1316.57,-167 1326.57,-170.5 1326.57,-163.5"/>
</g>
<!-- AccountTypeEditPageComponent -->
<g id="node5" class="node">
<title>AccountTypeEditPageComponent</title>
<polygon fill="#ffffb3" stroke="black" points="1857.07,-122 1648.93,-122 1648.93,-86 1857.07,-86 1857.07,-122"/>
<text text-anchor="middle" x="1753" y="-99.8" font-family="Times,serif" font-size="14.00">AccountTypeEditPageComponent</text>
</g>
<!-- AccountTypeEditPageComponent&#45;&gt;AccountModule -->
<g id="edge5" class="edge">
<title>AccountTypeEditPageComponent&#45;&gt;AccountModule</title>
<path fill="none" stroke="black" d="M1753,-122.03C1753,-139.06 1753,-162 1753,-162 1753,-162 1326.84,-162 1326.84,-162"/>
<polygon fill="black" stroke="black" points="1326.84,-158.5 1316.84,-162 1326.84,-165.5 1326.84,-158.5"/>
</g>
<!-- EditDataWrapperComponent -->
<g id="node6" class="node">
<title>EditDataWrapperComponent</title>
<polygon fill="#ffffb3" stroke="black" points="1631.06,-122 1450.94,-122 1450.94,-86 1631.06,-86 1631.06,-122"/>
<text text-anchor="middle" x="1541" y="-99.8" font-family="Times,serif" font-size="14.00">EditDataWrapperComponent</text>
</g>
<!-- EditDataWrapperComponent&#45;&gt;AccountModule -->
<g id="edge6" class="edge">
<title>EditDataWrapperComponent&#45;&gt;AccountModule</title>
<path fill="none" stroke="black" d="M1541,-122.24C1541,-137.57 1541,-157 1541,-157 1541,-157 1326.6,-157 1326.6,-157"/>
<polygon fill="black" stroke="black" points="1326.6,-153.5 1316.6,-157 1326.6,-160.5 1326.6,-153.5"/>
</g>
<!-- EmailEditPageComponent -->
<g id="node7" class="node">
<title>EmailEditPageComponent</title>
<polygon fill="#ffffb3" stroke="black" points="1432.82,-122 1267.18,-122 1267.18,-86 1432.82,-86 1432.82,-122"/>
<text text-anchor="middle" x="1350" y="-99.8" font-family="Times,serif" font-size="14.00">EmailEditPageComponent</text>
</g>
<!-- EmailEditPageComponent&#45;&gt;AccountModule -->
<g id="edge7" class="edge">
<title>EmailEditPageComponent&#45;&gt;AccountModule</title>
<path fill="none" stroke="black" d="M1291.91,-122.11C1291.91,-122.11 1291.91,-140.99 1291.91,-140.99"/>
<polygon fill="black" stroke="black" points="1288.41,-140.99 1291.91,-150.99 1295.41,-140.99 1288.41,-140.99"/>
</g>
<!-- OrdersPageComponent -->
<g id="node8" class="node">
<title>OrdersPageComponent</title>
<polygon fill="#ffffb3" stroke="black" points="1249.13,-122 1102.87,-122 1102.87,-86 1249.13,-86 1249.13,-122"/>
<text text-anchor="middle" x="1176" y="-99.8" font-family="Times,serif" font-size="14.00">OrdersPageComponent</text>
</g>
<!-- OrdersPageComponent&#45;&gt;AccountModule -->
<g id="edge8" class="edge">
<title>OrdersPageComponent&#45;&gt;AccountModule</title>
<path fill="none" stroke="black" d="M1229.41,-122.11C1229.41,-122.11 1229.41,-140.99 1229.41,-140.99"/>
<polygon fill="black" stroke="black" points="1225.91,-140.99 1229.41,-150.99 1232.91,-140.99 1225.91,-140.99"/>
</g>
<!-- PageTitleComponent -->
<g id="node9" class="node">
<title>PageTitleComponent</title>
<polygon fill="#ffffb3" stroke="black" points="1084.48,-122 949.52,-122 949.52,-86 1084.48,-86 1084.48,-122"/>
<text text-anchor="middle" x="1017" y="-99.8" font-family="Times,serif" font-size="14.00">PageTitleComponent</text>
</g>
<!-- PageTitleComponent&#45;&gt;AccountModule -->
<g id="edge9" class="edge">
<title>PageTitleComponent&#45;&gt;AccountModule</title>
<path fill="none" stroke="black" d="M1017,-122.24C1017,-137.57 1017,-157 1017,-157 1017,-157 1199.32,-157 1199.32,-157"/>
<polygon fill="black" stroke="black" points="1199.32,-160.5 1209.32,-157 1199.32,-153.5 1199.32,-160.5"/>
</g>
<!-- PasswordEditPageComponent -->
<g id="node10" class="node">
<title>PasswordEditPageComponent</title>
<polygon fill="#ffffb3" stroke="black" points="931.53,-122 746.47,-122 746.47,-86 931.53,-86 931.53,-122"/>
<text text-anchor="middle" x="839" y="-99.8" font-family="Times,serif" font-size="14.00">PasswordEditPageComponent</text>
</g>
<!-- PasswordEditPageComponent&#45;&gt;AccountModule -->
<g id="edge10" class="edge">
<title>PasswordEditPageComponent&#45;&gt;AccountModule</title>
<path fill="none" stroke="black" d="M839,-122.03C839,-139.06 839,-162 839,-162 839,-162 1199.3,-162 1199.3,-162"/>
<polygon fill="black" stroke="black" points="1199.3,-165.5 1209.3,-162 1199.3,-158.5 1199.3,-165.5"/>
</g>
<!-- PhoneNumberEditPageComponent -->
<g id="node11" class="node">
<title>PhoneNumberEditPageComponent</title>
<polygon fill="#ffffb3" stroke="black" points="728.25,-122 515.75,-122 515.75,-86 728.25,-86 728.25,-122"/>
<text text-anchor="middle" x="622" y="-99.8" font-family="Times,serif" font-size="14.00">PhoneNumberEditPageComponent</text>
</g>
<!-- PhoneNumberEditPageComponent&#45;&gt;AccountModule -->
<g id="edge11" class="edge">
<title>PhoneNumberEditPageComponent&#45;&gt;AccountModule</title>
<path fill="none" stroke="black" d="M622,-122.22C622,-140.83 622,-167 622,-167 622,-167 1199.45,-167 1199.45,-167"/>
<polygon fill="black" stroke="black" points="1199.45,-170.5 1209.45,-167 1199.45,-163.5 1199.45,-170.5"/>
</g>
<!-- PreviousPageButtonComponent -->
<g id="node12" class="node">
<title>PreviousPageButtonComponent</title>
<polygon fill="#ffffb3" stroke="black" points="497.66,-122 302.34,-122 302.34,-86 497.66,-86 497.66,-122"/>
<text text-anchor="middle" x="400" y="-99.8" font-family="Times,serif" font-size="14.00">PreviousPageButtonComponent</text>
</g>
<!-- PreviousPageButtonComponent&#45;&gt;AccountModule -->
<g id="edge12" class="edge">
<title>PreviousPageButtonComponent&#45;&gt;AccountModule</title>
<path fill="none" stroke="black" d="M400,-122.22C400,-142.37 400,-172 400,-172 400,-172 1199.34,-172 1199.34,-172"/>
<polygon fill="black" stroke="black" points="1199.34,-175.5 1209.34,-172 1199.34,-168.5 1199.34,-175.5"/>
</g>
<!-- UsernameEditComponent -->
<g id="node13" class="node">
<title>UsernameEditComponent</title>
<polygon fill="#ffffb3" stroke="black" points="283.91,-122 122.09,-122 122.09,-86 283.91,-86 283.91,-122"/>
<text text-anchor="middle" x="203" y="-99.8" font-family="Times,serif" font-size="14.00">UsernameEditComponent</text>
</g>
<!-- UsernameEditComponent&#45;&gt;AccountModule -->
<g id="edge13" class="edge">
<title>UsernameEditComponent&#45;&gt;AccountModule</title>
<path fill="none" stroke="black" d="M203,-122.04C203,-143.66 203,-177 203,-177 203,-177 1199.34,-177 1199.34,-177"/>
<polygon fill="black" stroke="black" points="1199.34,-180.5 1209.34,-177 1199.34,-173.5 1199.34,-180.5"/>
</g>
<!-- UiModule -->
<g id="node15" class="node">
<title>UiModule</title>
<polygon fill="#8dd3c7" stroke="black" points="97.55,-122 94.55,-126 73.55,-126 70.55,-122 24.45,-122 24.45,-86 97.55,-86 97.55,-122"/>
<text text-anchor="middle" x="61" y="-99.8" font-family="Times,serif" font-size="14.00">UiModule</text>
</g>
<!-- UiModule&#45;&gt;AccountModule -->
<g id="edge14" class="edge">
<title>UiModule&#45;&gt;AccountModule</title>
<path fill="none" stroke="black" d="M61,-122.09C61,-145.13 61,-182 61,-182 61,-182 1199.41,-182 1199.41,-182"/>
<polygon fill="black" stroke="black" points="1199.41,-185.5 1209.41,-182 1199.41,-178.5 1199.41,-185.5"/>
</g>
</g>
</svg>
