<?xml version="1.0" encoding="UTF-8" standalone="no"?>
<!DOCTYPE svg PUBLIC "-//W3C//DTD SVG 1.1//EN"
 "http://www.w3.org/Graphics/SVG/1.1/DTD/svg11.dtd">
<!-- Generated by graphviz version 2.46.0 (20210119.1425)
 -->
<!-- Title: dependencies Pages: 1 -->
<svg width="894pt" height="284pt"
 viewBox="0.00 0.00 894.00 284.00" xmlns="http://www.w3.org/2000/svg" xmlns:xlink="http://www.w3.org/1999/xlink">
<g id="graph0" class="graph" transform="scale(1 1) rotate(0) translate(4 280)">
<title>dependencies</title>
<polygon fill="white" stroke="transparent" points="-4,4 -4,-280 890,-280 890,4 -4,4"/>
<text text-anchor="start" x="422.01" y="-42.4" font-family="sans-serif" font-weight="bold" font-size="14.00">Legend</text>
<polygon fill="#ffffb3" stroke="transparent" points="209,-10 209,-30 229,-30 229,-10 209,-10"/>
<text text-anchor="start" x="232.63" y="-15.4" font-family="sans-serif" font-size="14.00"> &#160;Declarations</text>
<polygon fill="#8dd3c7" stroke="transparent" points="322,-10 322,-30 342,-30 342,-10 322,-10"/>
<text text-anchor="start" x="345.73" y="-15.4" font-family="sans-serif" font-size="14.00"> &#160;Module</text>
<polygon fill="#80b1d3" stroke="transparent" points="408,-10 408,-30 428,-30 428,-10 408,-10"/>
<text text-anchor="start" x="431.78" y="-15.4" font-family="sans-serif" font-size="14.00"> &#160;Bootstrap</text>
<polygon fill="#fdb462" stroke="transparent" points="505,-10 505,-30 525,-30 525,-10 505,-10"/>
<text text-anchor="start" x="528.67" y="-15.4" font-family="sans-serif" font-size="14.00"> &#160;Providers</text>
<polygon fill="#fb8072" stroke="transparent" points="601,-10 601,-30 621,-30 621,-10 601,-10"/>
<text text-anchor="start" x="624.73" y="-15.4" font-family="sans-serif" font-size="14.00"> &#160;Exports</text>
<g id="clust1" class="cluster">
<title>cluster_AppModule</title>
<polygon fill="none" stroke="black" stroke-dasharray="1,5" points="8,-70 8,-268 878,-268 878,-70 8,-70"/>
</g>
<g id="clust2" class="cluster">
<title>cluster_AppModule_declarations</title>
<polygon fill="none" stroke="black" points="748,-78 748,-130 870,-130 870,-78 748,-78"/>
</g>
<g id="clust7" class="cluster">
<title>cluster_AppModule_providers</title>
<polygon fill="none" stroke="black" points="542,-78 542,-130 740,-130 740,-78 542,-78"/>
</g>
<g id="clust4" class="cluster">
<title>cluster_AppModule_imports</title>
<polygon fill="none" stroke="black" points="16,-78 16,-130 534,-130 534,-78 16,-78"/>
</g>
<g id="clust6" class="cluster">
<title>cluster_AppModule_bootstrap</title>
<polygon fill="none" stroke="black" points="329,-208 329,-260 453,-260 453,-208 329,-208"/>
</g>
<!-- AppComponent -->
<g id="node1" class="node">
<title>AppComponent</title>
<polygon fill="#ffffb3" stroke="black" points="861.94,-122 756.06,-122 756.06,-86 861.94,-86 861.94,-122"/>
<text text-anchor="middle" x="809" y="-99.8" font-family="Times,serif" font-size="14.00">AppComponent</text>
</g>
<!-- AppModule -->
<g id="node2" class="node">
<title>AppModule</title>
<polygon fill="#8dd3c7" stroke="black" points="432.66,-187 429.66,-191 408.66,-191 405.66,-187 349.34,-187 349.34,-151 432.66,-151 432.66,-187"/>
<text text-anchor="middle" x="391" y="-164.8" font-family="Times,serif" font-size="14.00">AppModule</text>
</g>
<!-- AppComponent&#45;&gt;AppModule -->
<g id="edge1" class="edge">
<title>AppComponent&#45;&gt;AppModule</title>
<path fill="none" stroke="black" d="M809,-122.28C809,-143.32 809,-175 809,-175 809,-175 442.99,-175 442.99,-175"/>
<polygon fill="black" stroke="black" points="442.99,-171.5 432.99,-175 442.99,-178.5 442.99,-171.5"/>
</g>
<!-- AppComponent  -->
<g id="node7" class="node">
<title>AppComponent </title>
<polygon fill="#80b1d3" stroke="black" points="445.44,-252 336.56,-252 336.56,-216 445.44,-216 445.44,-252"/>
<text text-anchor="middle" x="391" y="-229.8" font-family="Times,serif" font-size="14.00">AppComponent </text>
</g>
<!-- AppModule&#45;&gt;AppComponent  -->
<g id="edge6" class="edge">
<title>AppModule&#45;&gt;AppComponent </title>
<path fill="none" stroke="black" stroke-dasharray="1,5" d="M391,-187.11C391,-187.11 391,-205.99 391,-205.99"/>
<polygon fill="black" stroke="black" points="387.5,-205.99 391,-215.99 394.5,-205.99 387.5,-205.99"/>
</g>
<!-- AppRoutingModule -->
<g id="node3" class="node">
<title>AppRoutingModule</title>
<polygon fill="#8dd3c7" stroke="black" points="526.27,-122 523.27,-126 502.27,-126 499.27,-122 397.73,-122 397.73,-86 526.27,-86 526.27,-122"/>
<text text-anchor="middle" x="462" y="-99.8" font-family="Times,serif" font-size="14.00">AppRoutingModule</text>
</g>
<!-- AppRoutingModule&#45;&gt;AppModule -->
<g id="edge2" class="edge">
<title>AppRoutingModule&#45;&gt;AppModule</title>
<path fill="none" stroke="black" d="M415.22,-122.11C415.22,-122.11 415.22,-140.99 415.22,-140.99"/>
<polygon fill="black" stroke="black" points="411.72,-140.99 415.22,-150.99 418.72,-140.99 411.72,-140.99"/>
</g>
<!-- DashboardModule -->
<g id="node4" class="node">
<title>DashboardModule</title>
<polygon fill="#8dd3c7" stroke="black" points="380.19,-122 377.19,-126 356.19,-126 353.19,-122 259.81,-122 259.81,-86 380.19,-86 380.19,-122"/>
<text text-anchor="middle" x="320" y="-99.8" font-family="Times,serif" font-size="14.00">DashboardModule</text>
</g>
<!-- DashboardModule&#45;&gt;AppModule -->
<g id="edge3" class="edge">
<title>DashboardModule&#45;&gt;AppModule</title>
<path fill="none" stroke="black" d="M364.63,-122.11C364.63,-122.11 364.63,-140.99 364.63,-140.99"/>
<polygon fill="black" stroke="black" points="361.13,-140.99 364.63,-150.99 368.13,-140.99 361.13,-140.99"/>
</g>
<!-- DataAccessModule -->
<g id="node5" class="node">
<title>DataAccessModule</title>
<polygon fill="#8dd3c7" stroke="black" points="241.62,-122 238.62,-126 217.62,-126 214.62,-122 116.38,-122 116.38,-86 241.62,-86 241.62,-122"/>
<text text-anchor="middle" x="179" y="-99.8" font-family="Times,serif" font-size="14.00">DataAccessModule</text>
</g>
<!-- DataAccessModule&#45;&gt;AppModule -->
<g id="edge4" class="edge">
<title>DataAccessModule&#45;&gt;AppModule</title>
<path fill="none" stroke="black" d="M179,-122.02C179,-139.37 179,-163 179,-163 179,-163 339.12,-163 339.12,-163"/>
<polygon fill="black" stroke="black" points="339.12,-166.5 349.12,-163 339.12,-159.5 339.12,-166.5"/>
</g>
<!-- UiModule -->
<g id="node6" class="node">
<title>UiModule</title>
<polygon fill="#8dd3c7" stroke="black" points="97.55,-122 94.55,-126 73.55,-126 70.55,-122 24.45,-122 24.45,-86 97.55,-86 97.55,-122"/>
<text text-anchor="middle" x="61" y="-99.8" font-family="Times,serif" font-size="14.00">UiModule</text>
</g>
<!-- UiModule&#45;&gt;AppModule -->
<g id="edge5" class="edge">
<title>UiModule&#45;&gt;AppModule</title>
<path fill="none" stroke="black" d="M61,-122.28C61,-143.32 61,-175 61,-175 61,-175 339.21,-175 339.21,-175"/>
<polygon fill="black" stroke="black" points="339.21,-178.5 349.21,-175 339.21,-171.5 339.21,-178.5"/>
</g>
<!-- HttpErrorInterceptor -->
<g id="node8" class="node">
<title>HttpErrorInterceptor</title>
<ellipse fill="#fdb462" stroke="black" cx="641" cy="-104" rx="90.87" ry="18"/>
<text text-anchor="middle" x="641" y="-99.8" font-family="Times,serif" font-size="14.00">HttpErrorInterceptor</text>
</g>
<!-- HttpErrorInterceptor&#45;&gt;AppModule -->
<g id="edge7" class="edge">
<title>HttpErrorInterceptor&#45;&gt;AppModule</title>
<path fill="none" stroke="black" d="M641,-122.02C641,-139.37 641,-163 641,-163 641,-163 442.84,-163 442.84,-163"/>
<polygon fill="black" stroke="black" points="442.84,-159.5 432.84,-163 442.84,-166.5 442.84,-159.5"/>
</g>
</g>
</svg>
