<?xml version="1.0" encoding="UTF-8" standalone="no"?>
<!DOCTYPE svg PUBLIC "-//W3C//DTD SVG 1.1//EN"
 "http://www.w3.org/Graphics/SVG/1.1/DTD/svg11.dtd">
<!-- Generated by graphviz version 2.46.0 (20210119.1425)
 -->
<!-- Title: dependencies Pages: 1 -->
<svg width="3932pt" height="442pt"
 viewBox="0.00 0.00 3932.00 442.00" xmlns="http://www.w3.org/2000/svg" xmlns:xlink="http://www.w3.org/1999/xlink">
<g id="graph0" class="graph" transform="scale(1 1) rotate(0) translate(4 438)">
<title>dependencies</title>
<polygon fill="white" stroke="transparent" points="-4,4 -4,-438 3928,-438 3928,4 -4,4"/>
<text text-anchor="start" x="1941.01" y="-42.4" font-family="sans-serif" font-weight="bold" font-size="14.00">Legend</text>
<polygon fill="#ffffb3" stroke="transparent" points="1728,-10 1728,-30 1748,-30 1748,-10 1728,-10"/>
<text text-anchor="start" x="1751.63" y="-15.4" font-family="sans-serif" font-size="14.00"> &#160;Declarations</text>
<polygon fill="#8dd3c7" stroke="transparent" points="1841,-10 1841,-30 1861,-30 1861,-10 1841,-10"/>
<text text-anchor="start" x="1864.73" y="-15.4" font-family="sans-serif" font-size="14.00"> &#160;Module</text>
<polygon fill="#80b1d3" stroke="transparent" points="1927,-10 1927,-30 1947,-30 1947,-10 1927,-10"/>
<text text-anchor="start" x="1950.78" y="-15.4" font-family="sans-serif" font-size="14.00"> &#160;Bootstrap</text>
<polygon fill="#fdb462" stroke="transparent" points="2024,-10 2024,-30 2044,-30 2044,-10 2024,-10"/>
<text text-anchor="start" x="2047.67" y="-15.4" font-family="sans-serif" font-size="14.00"> &#160;Providers</text>
<polygon fill="#fb8072" stroke="transparent" points="2120,-10 2120,-30 2140,-30 2140,-10 2120,-10"/>
<text text-anchor="start" x="2143.73" y="-15.4" font-family="sans-serif" font-size="14.00"> &#160;Exports</text>
<g id="clust1" class="cluster">
<title>cluster_AppModule</title>
<polygon fill="none" stroke="black" stroke-dasharray="1,5" points="1752,-146 1752,-426 2737,-426 2737,-146 1752,-146"/>
</g>
<g id="clust2" class="cluster">
<title>cluster_AppModule_declarations</title>
<polygon fill="none" stroke="black" points="2607,-230 2607,-282 2729,-282 2729,-230 2607,-230"/>
</g>
<g id="clust4" class="cluster">
<title>cluster_AppModule_imports</title>
<polygon fill="none" stroke="black" points="2098,-154 2098,-282 2599,-282 2599,-154 2098,-154"/>
</g>
<g id="clust6" class="cluster">
<title>cluster_AppModule_bootstrap</title>
<polygon fill="none" stroke="black" points="2264,-366 2264,-418 2388,-418 2388,-366 2264,-366"/>
</g>
<g id="clust7" class="cluster">
<title>cluster_AppModule_providers</title>
<polygon fill="none" stroke="black" points="1760,-230 1760,-282 2090,-282 2090,-230 1760,-230"/>
</g>
<g id="clust14" class="cluster">
<title>cluster_CategoryModule</title>
<polygon fill="none" stroke="black" stroke-dasharray="1,5" points="8,-146 8,-358 732,-358 732,-146 8,-146"/>
</g>
<g id="clust15" class="cluster">
<title>cluster_CategoryModule_declarations</title>
<polygon fill="none" stroke="black" points="16,-154 16,-206 724,-206 724,-154 16,-154"/>
</g>
<g id="clust21" class="cluster">
<title>cluster_CategoryModule_exports</title>
<polygon fill="none" stroke="black" points="396,-298 396,-350 570,-350 570,-298 396,-298"/>
</g>
<g id="clust30" class="cluster">
<title>cluster_DashboardModule</title>
<polygon fill="none" stroke="black" stroke-dasharray="1,5" points="3742,-146 3742,-214 3916,-214 3916,-146 3742,-146"/>
</g>
<g id="clust31" class="cluster">
<title>cluster_DashboardModule_declarations</title>
<polygon fill="none" stroke="black" points="3750,-154 3750,-206 3908,-206 3908,-154 3750,-154"/>
</g>
<g id="clust43" class="cluster">
<title>cluster_HomeModule</title>
<polygon fill="none" stroke="black" stroke-dasharray="1,5" points="740,-146 740,-282 888,-282 888,-146 740,-146"/>
</g>
<g id="clust44" class="cluster">
<title>cluster_HomeModule_declarations</title>
<polygon fill="none" stroke="black" points="748,-154 748,-206 880,-206 880,-154 748,-154"/>
</g>
<g id="clust50" class="cluster">
<title>cluster_ProductHttpModule</title>
<polygon fill="none" stroke="black" stroke-dasharray="1,5" points="3562,-70 3562,-206 3734,-206 3734,-70 3562,-70"/>
</g>
<g id="clust55" class="cluster">
<title>cluster_ProductHttpModule_providers</title>
<polygon fill="none" stroke="black" points="3570,-78 3570,-130 3726,-130 3726,-78 3570,-78"/>
</g>
<g id="clust62" class="cluster">
<title>cluster_ProductsModule</title>
<polygon fill="none" stroke="black" stroke-dasharray="1,5" points="1056,-222 1056,-350 1744,-350 1744,-222 1056,-222"/>
</g>
<g id="clust63" class="cluster">
<title>cluster_ProductsModule_declarations</title>
<polygon fill="none" stroke="black" points="1186,-230 1186,-282 1736,-282 1736,-230 1186,-230"/>
</g>
<g id="clust67" class="cluster">
<title>cluster_ProductsModule_imports</title>
<polygon fill="none" stroke="black" points="1064,-230 1064,-282 1178,-282 1178,-230 1064,-230"/>
</g>
<g id="clust71" class="cluster">
<title>cluster_ProfileModule</title>
<polygon fill="none" stroke="black" stroke-dasharray="1,5" points="896,-146 896,-282 1048,-282 1048,-146 896,-146"/>
</g>
<g id="clust72" class="cluster">
<title>cluster_ProfileModule_declarations</title>
<polygon fill="none" stroke="black" points="904,-154 904,-206 1040,-206 1040,-154 904,-154"/>
</g>
<g id="clust78" class="cluster">
<title>cluster_SharedModule</title>
<polygon fill="none" stroke="black" stroke-dasharray="1,5" points="938,-290 938,-358 1048,-358 1048,-290 938,-290"/>
</g>
<g id="clust81" class="cluster">
<title>cluster_SharedModule_exports</title>
<polygon fill="none" stroke="black" points="946,-298 946,-350 1040,-350 1040,-298 946,-298"/>
</g>
<g id="clust84" class="cluster">
<title>cluster_UiModule</title>
<polygon fill="none" stroke="black" stroke-dasharray="1,5" points="311,-70 311,-138 3554,-138 3554,-70 311,-70"/>
</g>
<g id="clust85" class="cluster">
<title>cluster_UiModule_declarations</title>
<polygon fill="none" stroke="black" points="1901,-78 1901,-130 3546,-130 3546,-78 1901,-78"/>
</g>
<g id="clust99" class="cluster">
<title>cluster_UiModule_exports</title>
<polygon fill="none" stroke="black" points="319,-78 319,-130 1893,-130 1893,-78 319,-78"/>
</g>
<!-- AppComponent -->
<g id="node1" class="node">
<title>AppComponent</title>
<polygon fill="#ffffb3" stroke="black" points="2720.94,-274 2615.06,-274 2615.06,-238 2720.94,-238 2720.94,-274"/>
<text text-anchor="middle" x="2668" y="-251.8" font-family="Times,serif" font-size="14.00">AppComponent</text>
</g>
<!-- AppModule -->
<g id="node2" class="node">
<title>AppModule</title>
<polygon fill="#8dd3c7" stroke="black" points="2367.66,-342 2364.66,-346 2343.66,-346 2340.66,-342 2284.34,-342 2284.34,-306 2367.66,-306 2367.66,-342"/>
<text text-anchor="middle" x="2326" y="-319.8" font-family="Times,serif" font-size="14.00">AppModule</text>
</g>
<!-- AppComponent&#45;&gt;AppModule -->
<g id="edge1" class="edge">
<title>AppComponent&#45;&gt;AppModule</title>
<path fill="none" stroke="black" d="M2685.57,-274.32C2685.57,-297.66 2685.57,-335 2685.57,-335 2685.57,-335 2377.95,-335 2377.95,-335"/>
<polygon fill="black" stroke="black" points="2377.95,-331.5 2367.95,-335 2377.95,-338.5 2377.95,-331.5"/>
</g>
<!-- AppComponent&#45;&gt;AppModule -->
<g id="edge5" class="edge">
<title>AppComponent&#45;&gt;AppModule</title>
<path fill="none" stroke="black" d="M2650.43,-274.17C2650.43,-295.5 2650.43,-328 2650.43,-328 2650.43,-328 2377.75,-328 2377.75,-328"/>
<polygon fill="black" stroke="black" points="2377.75,-324.5 2367.75,-328 2377.75,-331.5 2377.75,-324.5"/>
</g>
<!-- AppComponent  -->
<g id="node5" class="node">
<title>AppComponent </title>
<polygon fill="#80b1d3" stroke="black" points="2380.44,-410 2271.56,-410 2271.56,-374 2380.44,-374 2380.44,-410"/>
<text text-anchor="middle" x="2326" y="-387.8" font-family="Times,serif" font-size="14.00">AppComponent </text>
</g>
<!-- AppModule&#45;&gt;AppComponent  -->
<g id="edge4" class="edge">
<title>AppModule&#45;&gt;AppComponent </title>
<path fill="none" stroke="black" stroke-dasharray="1,5" d="M2312.06,-342.22C2312.06,-342.22 2312.06,-363.73 2312.06,-363.73"/>
<polygon fill="black" stroke="black" points="2308.56,-363.73 2312.06,-373.73 2315.56,-363.73 2308.56,-363.73"/>
</g>
<!-- AppModule&#45;&gt;AppComponent  -->
<g id="edge10" class="edge">
<title>AppModule&#45;&gt;AppComponent </title>
<path fill="none" stroke="black" stroke-dasharray="1,5" d="M2339.94,-342.22C2339.94,-342.22 2339.94,-363.73 2339.94,-363.73"/>
<polygon fill="black" stroke="black" points="2336.44,-363.73 2339.94,-373.73 2343.44,-363.73 2336.44,-363.73"/>
</g>
<!-- AppRoutingModule -->
<g id="node3" class="node">
<title>AppRoutingModule</title>
<polygon fill="#8dd3c7" stroke="black" points="2447.27,-198 2444.27,-202 2423.27,-202 2420.27,-198 2318.73,-198 2318.73,-162 2447.27,-162 2447.27,-198"/>
<text text-anchor="middle" x="2383" y="-175.8" font-family="Times,serif" font-size="14.00">AppRoutingModule</text>
</g>
<!-- AppRoutingModule&#45;&gt;AppModule -->
<g id="edge2" class="edge">
<title>AppRoutingModule&#45;&gt;AppModule</title>
<path fill="none" stroke="black" d="M2349.47,-198.24C2349.47,-198.24 2349.47,-295.91 2349.47,-295.91"/>
<polygon fill="black" stroke="black" points="2345.97,-295.91 2349.47,-305.91 2352.97,-295.91 2345.97,-295.91"/>
</g>
<!-- AppRoutingModule&#45;&gt;AppModule -->
<g id="edge6" class="edge">
<title>AppRoutingModule&#45;&gt;AppModule</title>
<path fill="none" stroke="black" d="M2334.04,-198.24C2334.04,-198.24 2334.04,-295.91 2334.04,-295.91"/>
<polygon fill="black" stroke="black" points="2330.54,-295.91 2334.04,-305.91 2337.54,-295.91 2330.54,-295.91"/>
</g>
<!-- UiModule -->
<g id="node4" class="node">
<title>UiModule</title>
<polygon fill="#8dd3c7" stroke="black" points="2179.55,-198 2176.55,-202 2155.55,-202 2152.55,-198 2106.45,-198 2106.45,-162 2179.55,-162 2179.55,-198"/>
<text text-anchor="middle" x="2143" y="-175.8" font-family="Times,serif" font-size="14.00">UiModule</text>
</g>
<!-- UiModule&#45;&gt;AppModule -->
<g id="edge3" class="edge">
<title>UiModule&#45;&gt;AppModule</title>
<path fill="none" stroke="black" d="M2155.26,-198.14C2155.26,-236.23 2155.26,-321 2155.26,-321 2155.26,-321 2274.23,-321 2274.23,-321"/>
<polygon fill="black" stroke="black" points="2274.23,-324.5 2284.23,-321 2274.23,-317.5 2274.23,-324.5"/>
</g>
<!-- UiModule&#45;&gt;AppModule -->
<g id="edge9" class="edge">
<title>UiModule&#45;&gt;AppModule</title>
<path fill="none" stroke="black" d="M2143,-198.15C2143,-237.67 2143,-328 2143,-328 2143,-328 2274.02,-328 2274.02,-328"/>
<polygon fill="black" stroke="black" points="2274.02,-331.5 2284.02,-328 2274.02,-324.5 2274.02,-331.5"/>
</g>
<!-- DashboardModule -->
<g id="node6" class="node">
<title>DashboardModule</title>
<polygon fill="#8dd3c7" stroke="black" points="2485.19,-274 2482.19,-278 2461.19,-278 2458.19,-274 2364.81,-274 2364.81,-238 2485.19,-238 2485.19,-274"/>
<text text-anchor="middle" x="2425" y="-251.8" font-family="Times,serif" font-size="14.00">DashboardModule</text>
</g>
<!-- UiModule&#45;&gt;DashboardModule -->
<g id="edge21" class="edge">
<title>UiModule&#45;&gt;DashboardModule</title>
<path fill="none" stroke="black" d="M2167.52,-198.03C2167.52,-218.77 2167.52,-250 2167.52,-250 2167.52,-250 2354.63,-250 2354.63,-250"/>
<polygon fill="black" stroke="black" points="2354.63,-253.5 2364.63,-250 2354.63,-246.5 2354.63,-253.5"/>
</g>
<!-- CategoryModule -->
<g id="node15" class="node">
<title>CategoryModule</title>
<polygon fill="#8dd3c7" stroke="black" points="538.37,-274 535.37,-278 514.37,-278 511.37,-274 427.63,-274 427.63,-238 538.37,-238 538.37,-274"/>
<text text-anchor="middle" x="483" y="-251.8" font-family="Times,serif" font-size="14.00">CategoryModule</text>
</g>
<!-- UiModule&#45;&gt;CategoryModule -->
<g id="edge18" class="edge">
<title>UiModule&#45;&gt;CategoryModule</title>
<path fill="none" stroke="black" d="M2118.48,-198.06C2118.48,-202.49 2118.48,-206 2118.48,-206 2118.48,-206 501.48,-206 501.48,-206 501.48,-206 501.48,-227.95 501.48,-227.95"/>
<polygon fill="black" stroke="black" points="497.98,-227.95 501.48,-237.95 504.98,-227.95 497.98,-227.95"/>
</g>
<!-- HomeModule -->
<g id="node19" class="node">
<title>HomeModule</title>
<polygon fill="#8dd3c7" stroke="black" points="869.76,-274 866.76,-278 845.76,-278 842.76,-274 776.24,-274 776.24,-238 869.76,-238 869.76,-274"/>
<text text-anchor="middle" x="823" y="-251.8" font-family="Times,serif" font-size="14.00">HomeModule</text>
</g>
<!-- UiModule&#45;&gt;HomeModule -->
<g id="edge23" class="edge">
<title>UiModule&#45;&gt;HomeModule</title>
<path fill="none" stroke="black" d="M2130.74,-198.05C2130.74,-212.37 2130.74,-230 2130.74,-230 2130.74,-230 838.63,-230 838.63,-230 838.63,-230 838.63,-230.79 838.63,-230.79"/>
<polygon fill="black" stroke="black" points="835.13,-227.94 838.63,-237.94 842.13,-227.94 835.13,-227.94"/>
</g>
<!-- SharedModule -->
<g id="node26" class="node">
<title>SharedModule</title>
<polygon fill="#8dd3c7" stroke="black" points="1170.42,-274 1167.42,-278 1146.42,-278 1143.42,-274 1071.58,-274 1071.58,-238 1170.42,-238 1170.42,-274"/>
<text text-anchor="middle" x="1121" y="-251.8" font-family="Times,serif" font-size="14.00">SharedModule</text>
</g>
<!-- UiModule&#45;&gt;SharedModule -->
<g id="edge33" class="edge">
<title>UiModule&#45;&gt;SharedModule</title>
<path fill="none" stroke="black" d="M2106.31,-195C1927.19,-195 1153.29,-195 1153.29,-195 1153.29,-195 1153.29,-227.7 1153.29,-227.7"/>
<polygon fill="black" stroke="black" points="1149.79,-227.7 1153.29,-237.7 1156.79,-227.7 1149.79,-227.7"/>
</g>
<!-- ProfileModule -->
<g id="node28" class="node">
<title>ProfileModule</title>
<polygon fill="#8dd3c7" stroke="black" points="1029.65,-274 1026.65,-278 1005.65,-278 1002.65,-274 932.35,-274 932.35,-238 1029.65,-238 1029.65,-274"/>
<text text-anchor="middle" x="981" y="-251.8" font-family="Times,serif" font-size="14.00">ProfileModule</text>
</g>
<!-- UiModule&#45;&gt;ProfileModule -->
<g id="edge32" class="edge">
<title>UiModule&#45;&gt;ProfileModule</title>
<path fill="none" stroke="black" d="M2106.38,-191C1916.4,-191 1051.75,-191 1051.75,-191 1051.75,-191 1051.75,-256 1051.75,-256 1051.75,-256 1039.75,-256 1039.75,-256"/>
<polygon fill="black" stroke="black" points="1039.75,-252.5 1029.75,-256 1039.75,-259.5 1039.75,-252.5"/>
</g>
<!-- BannerComponent  -->
<g id="node42" class="node">
<title>BannerComponent </title>
<polygon fill="#fb8072" stroke="black" points="1261.76,-122 1136.24,-122 1136.24,-86 1261.76,-86 1261.76,-122"/>
<text text-anchor="middle" x="1199" y="-99.8" font-family="Times,serif" font-size="14.00">BannerComponent </text>
</g>
<!-- UiModule&#45;&gt;BannerComponent  -->
<g id="edge47" class="edge">
<title>UiModule&#45;&gt;BannerComponent </title>
<path fill="none" stroke="black" stroke-dasharray="5,2" d="M2106.27,-184C1935.55,-184 1227.79,-184 1227.79,-184 1227.79,-184 1227.79,-132.15 1227.79,-132.15"/>
<polygon fill="black" stroke="black" points="1231.29,-132.15 1227.79,-122.15 1224.29,-132.15 1231.29,-132.15"/>
</g>
<!-- ButtonComponent  -->
<g id="node43" class="node">
<title>ButtonComponent </title>
<polygon fill="#fb8072" stroke="black" points="1118.45,-122 995.55,-122 995.55,-86 1118.45,-86 1118.45,-122"/>
<text text-anchor="middle" x="1057" y="-99.8" font-family="Times,serif" font-size="14.00">ButtonComponent </text>
</g>
<!-- UiModule&#45;&gt;ButtonComponent  -->
<g id="edge48" class="edge">
<title>UiModule&#45;&gt;ButtonComponent </title>
<path fill="none" stroke="black" stroke-dasharray="5,2" d="M2106.32,-188C1920.86,-188 1095.13,-188 1095.13,-188 1095.13,-188 1095.13,-132.23 1095.13,-132.23"/>
<polygon fill="black" stroke="black" points="1098.63,-132.23 1095.13,-122.23 1091.63,-132.23 1098.63,-132.23"/>
</g>
<!-- FooterComponent  -->
<g id="node44" class="node">
<title>FooterComponent </title>
<polygon fill="#fb8072" stroke="black" points="977.88,-122 856.12,-122 856.12,-86 977.88,-86 977.88,-122"/>
<text text-anchor="middle" x="917" y="-99.8" font-family="Times,serif" font-size="14.00">FooterComponent </text>
</g>
<!-- UiModule&#45;&gt;FooterComponent  -->
<g id="edge49" class="edge">
<title>UiModule&#45;&gt;FooterComponent </title>
<path fill="none" stroke="black" stroke-dasharray="5,2" d="M2123.64,-161.99C2123.64,-145.95 2123.64,-125 2123.64,-125 2123.64,-125 944.99,-125 944.99,-125 944.99,-125 944.99,-124.71 944.99,-124.71"/>
<polygon fill="black" stroke="black" points="948.49,-132.08 944.99,-122.08 941.49,-132.08 948.49,-132.08"/>
</g>
<!-- FormComponent  -->
<g id="node45" class="node">
<title>FormComponent </title>
<polygon fill="#fb8072" stroke="black" points="838.67,-122 723.33,-122 723.33,-86 838.67,-86 838.67,-122"/>
<text text-anchor="middle" x="781" y="-99.8" font-family="Times,serif" font-size="14.00">FormComponent </text>
</g>
<!-- UiModule&#45;&gt;FormComponent  -->
<g id="edge50" class="edge">
<title>UiModule&#45;&gt;FormComponent </title>
<path fill="none" stroke="black" stroke-dasharray="5,2" d="M2120.16,-161.76C2120.16,-146.43 2120.16,-127 2120.16,-127 2120.16,-127 797.41,-127 797.41,-127 797.41,-127 797.41,-126.51 797.41,-126.51"/>
<polygon fill="black" stroke="black" points="800.91,-132.12 797.41,-122.12 793.91,-132.12 800.91,-132.12"/>
</g>
<!-- InputDirective  -->
<g id="node46" class="node">
<title>InputDirective </title>
<polygon fill="#fb8072" stroke="black" points="705.63,-122 604.37,-122 604.37,-86 705.63,-86 705.63,-122"/>
<text text-anchor="middle" x="655" y="-99.8" font-family="Times,serif" font-size="14.00">InputDirective </text>
</g>
<!-- UiModule&#45;&gt;InputDirective  -->
<g id="edge51" class="edge">
<title>UiModule&#45;&gt;InputDirective </title>
<path fill="none" stroke="black" stroke-dasharray="5,2" d="M2116.67,-161.95C2116.67,-147.63 2116.67,-130 2116.67,-130 2116.67,-130 655,-130 655,-130 655,-130 655,-129.21 655,-129.21"/>
<polygon fill="black" stroke="black" points="658.5,-132.06 655,-122.06 651.5,-132.06 658.5,-132.06"/>
</g>
<!-- LabelComponent  -->
<g id="node47" class="node">
<title>LabelComponent </title>
<polygon fill="#fb8072" stroke="black" points="586.21,-122 469.79,-122 469.79,-86 586.21,-86 586.21,-122"/>
<text text-anchor="middle" x="528" y="-99.8" font-family="Times,serif" font-size="14.00">LabelComponent </text>
</g>
<!-- UiModule&#45;&gt;LabelComponent  -->
<g id="edge52" class="edge">
<title>UiModule&#45;&gt;LabelComponent </title>
<path fill="none" stroke="black" stroke-dasharray="5,2" d="M2113.19,-161.85C2113.19,-148.26 2113.19,-132 2113.19,-132 2113.19,-132 576.93,-132 576.93,-132 576.93,-132 576.93,-131.02 576.93,-131.02"/>
<polygon fill="black" stroke="black" points="580.43,-132.21 576.93,-122.21 573.43,-132.21 580.43,-132.21"/>
</g>
<!-- LoaderComponent  -->
<g id="node48" class="node">
<title>LoaderComponent </title>
<polygon fill="#fb8072" stroke="black" points="451.48,-122 326.52,-122 326.52,-86 451.48,-86 451.48,-122"/>
<text text-anchor="middle" x="389" y="-99.8" font-family="Times,serif" font-size="14.00">LoaderComponent </text>
</g>
<!-- UiModule&#45;&gt;LoaderComponent  -->
<g id="edge53" class="edge">
<title>UiModule&#45;&gt;LoaderComponent </title>
<path fill="none" stroke="black" stroke-dasharray="5,2" d="M2109.71,-161.96C2109.71,-149.44 2109.71,-135 2109.71,-135 2109.71,-135 433.96,-135 433.96,-135 433.96,-135 433.96,-132.03 433.96,-132.03"/>
<polygon fill="black" stroke="black" points="437.46,-132.03 433.96,-122.03 430.46,-132.03 437.46,-132.03"/>
</g>
<!-- NavbarComponent  -->
<g id="node49" class="node">
<title>NavbarComponent </title>
<polygon fill="#fb8072" stroke="black" points="1885.03,-122 1758.97,-122 1758.97,-86 1885.03,-86 1885.03,-122"/>
<text text-anchor="middle" x="1822" y="-99.8" font-family="Times,serif" font-size="14.00">NavbarComponent </text>
</g>
<!-- UiModule&#45;&gt;NavbarComponent  -->
<g id="edge54" class="edge">
<title>UiModule&#45;&gt;NavbarComponent </title>
<path fill="none" stroke="black" stroke-dasharray="5,2" d="M2106.21,-170C2022.5,-170 1825,-170 1825,-170 1825,-170 1825,-132.03 1825,-132.03"/>
<polygon fill="black" stroke="black" points="1828.5,-132.03 1825,-122.03 1821.5,-132.03 1828.5,-132.03"/>
</g>
<!-- PageIntroHeaderComponent  -->
<g id="node50" class="node">
<title>PageIntroHeaderComponent </title>
<polygon fill="#fb8072" stroke="black" points="1740.67,-122 1561.33,-122 1561.33,-86 1740.67,-86 1740.67,-122"/>
<text text-anchor="middle" x="1651" y="-99.8" font-family="Times,serif" font-size="14.00">PageIntroHeaderComponent </text>
</g>
<!-- UiModule&#45;&gt;PageIntroHeaderComponent  -->
<g id="edge55" class="edge">
<title>UiModule&#45;&gt;PageIntroHeaderComponent </title>
<path fill="none" stroke="black" stroke-dasharray="5,2" d="M2106.37,-173C2006.06,-173 1734.33,-173 1734.33,-173 1734.33,-173 1734.33,-132.13 1734.33,-132.13"/>
<polygon fill="black" stroke="black" points="1737.83,-132.13 1734.33,-122.13 1730.83,-132.13 1737.83,-132.13"/>
</g>
<!-- ProductComponent  -->
<g id="node51" class="node">
<title>ProductComponent </title>
<polygon fill="#fb8072" stroke="black" points="1543.38,-122 1414.62,-122 1414.62,-86 1543.38,-86 1543.38,-122"/>
<text text-anchor="middle" x="1479" y="-99.8" font-family="Times,serif" font-size="14.00">ProductComponent </text>
</g>
<!-- UiModule&#45;&gt;ProductComponent  -->
<g id="edge56" class="edge">
<title>UiModule&#45;&gt;ProductComponent </title>
<path fill="none" stroke="black" stroke-dasharray="5,2" d="M2106.38,-177C1975.09,-177 1535.73,-177 1535.73,-177 1535.73,-177 1535.73,-132.04 1535.73,-132.04"/>
<polygon fill="black" stroke="black" points="1539.23,-132.04 1535.73,-122.04 1532.23,-132.04 1539.23,-132.04"/>
</g>
<!-- TableComponent  -->
<g id="node52" class="node">
<title>TableComponent </title>
<polygon fill="#fb8072" stroke="black" points="1396.21,-122 1279.79,-122 1279.79,-86 1396.21,-86 1396.21,-122"/>
<text text-anchor="middle" x="1338" y="-99.8" font-family="Times,serif" font-size="14.00">TableComponent </text>
</g>
<!-- UiModule&#45;&gt;TableComponent  -->
<g id="edge57" class="edge">
<title>UiModule&#45;&gt;TableComponent </title>
<path fill="none" stroke="black" stroke-dasharray="5,2" d="M2106.2,-180C1953.8,-180 1380.04,-180 1380.04,-180 1380.04,-180 1380.04,-132.01 1380.04,-132.01"/>
<polygon fill="black" stroke="black" points="1383.54,-132.01 1380.04,-122.01 1376.54,-132.01 1383.54,-132.01"/>
</g>
<!-- DashboardModule&#45;&gt;AppModule -->
<g id="edge7" class="edge">
<title>DashboardModule&#45;&gt;AppModule</title>
<path fill="none" stroke="black" d="M2374.15,-274.03C2374.15,-291.06 2374.15,-314 2374.15,-314 2374.15,-314 2373.52,-314 2373.52,-314"/>
<polygon fill="black" stroke="black" points="2377.85,-310.5 2367.85,-314 2377.85,-317.5 2377.85,-310.5"/>
</g>
<!-- DataAccessModule -->
<g id="node7" class="node">
<title>DataAccessModule</title>
<polygon fill="#8dd3c7" stroke="black" points="2590.62,-198 2587.62,-202 2566.62,-202 2563.62,-198 2465.38,-198 2465.38,-162 2590.62,-162 2590.62,-198"/>
<text text-anchor="middle" x="2528" y="-175.8" font-family="Times,serif" font-size="14.00">DataAccessModule</text>
</g>
<!-- DataAccessModule&#45;&gt;AppModule -->
<g id="edge8" class="edge">
<title>DataAccessModule&#45;&gt;AppModule</title>
<path fill="none" stroke="black" d="M2537.95,-198.14C2537.95,-236.23 2537.95,-321 2537.95,-321 2537.95,-321 2377.87,-321 2377.87,-321"/>
<polygon fill="black" stroke="black" points="2377.87,-317.5 2367.87,-321 2377.87,-324.5 2377.87,-317.5"/>
</g>
<!-- HttpErrorInterceptor -->
<g id="node8" class="node">
<title>HttpErrorInterceptor</title>
<ellipse fill="#fdb462" stroke="black" cx="1991" cy="-256" rx="90.87" ry="18"/>
<text text-anchor="middle" x="1991" y="-251.8" font-family="Times,serif" font-size="14.00">HttpErrorInterceptor</text>
</g>
<!-- HttpErrorInterceptor&#45;&gt;AppModule -->
<g id="edge11" class="edge">
<title>HttpErrorInterceptor&#45;&gt;AppModule</title>
<path fill="none" stroke="black" d="M2076.95,-262C2166.03,-262 2292.36,-262 2292.36,-262 2292.36,-262 2292.36,-295.73 2292.36,-295.73"/>
<polygon fill="black" stroke="black" points="2288.86,-295.73 2292.36,-305.73 2295.86,-295.73 2288.86,-295.73"/>
</g>
<!-- ProductModule -->
<g id="node9" class="node">
<title>ProductModule</title>
<polygon fill="#8dd3c7" stroke="black" points="2300.6,-198 2297.6,-202 2276.6,-202 2273.6,-198 2197.4,-198 2197.4,-162 2300.6,-162 2300.6,-198"/>
<text text-anchor="middle" x="2249" y="-175.8" font-family="Times,serif" font-size="14.00">ProductModule</text>
</g>
<!-- ProductModule&#45;&gt;AppModule -->
<g id="edge12" class="edge">
<title>ProductModule&#45;&gt;AppModule</title>
<path fill="none" stroke="black" d="M2296.45,-198.24C2296.45,-198.24 2296.45,-295.91 2296.45,-295.91"/>
<polygon fill="black" stroke="black" points="2292.95,-295.91 2296.45,-305.91 2299.95,-295.91 2292.95,-295.91"/>
</g>
<!-- ProductHttpModule -->
<g id="node20" class="node">
<title>ProductHttpModule</title>
<polygon fill="#8dd3c7" stroke="black" points="3704.99,-198 3701.99,-202 3680.99,-202 3677.99,-198 3577.01,-198 3577.01,-162 3704.99,-162 3704.99,-198"/>
<text text-anchor="middle" x="3641" y="-175.8" font-family="Times,serif" font-size="14.00">ProductHttpModule</text>
</g>
<!-- ProductModule&#45;&gt;ProductHttpModule -->
<g id="edge24" class="edge">
<title>ProductModule&#45;&gt;ProductHttpModule</title>
<path fill="none" stroke="black" d="M2288.27,-198.19C2288.27,-206.28 2288.27,-214 2288.27,-214 2288.27,-214 3641,-214 3641,-214 3641,-214 3641,-208.19 3641,-208.19"/>
<polygon fill="black" stroke="black" points="3644.5,-208.19 3641,-198.19 3637.5,-208.19 3644.5,-208.19"/>
</g>
<!-- AppService -->
<g id="node10" class="node">
<title>AppService</title>
<ellipse fill="#fdb462" stroke="black" cx="1825" cy="-256" rx="56.74" ry="18"/>
<text text-anchor="middle" x="1825" y="-251.8" font-family="Times,serif" font-size="14.00">AppService</text>
</g>
<!-- AppService&#45;&gt;AppModule -->
<g id="edge13" class="edge">
<title>AppService&#45;&gt;AppModule</title>
<path fill="none" stroke="black" d="M1825,-274.32C1825,-297.66 1825,-335 1825,-335 1825,-335 2274.15,-335 2274.15,-335"/>
<polygon fill="black" stroke="black" points="2274.15,-338.5 2284.15,-335 2274.15,-331.5 2274.15,-338.5"/>
</g>
<!-- BannersListComponent -->
<g id="node11" class="node">
<title>BannersListComponent</title>
<polygon fill="#ffffb3" stroke="black" points="716.48,-198 567.52,-198 567.52,-162 716.48,-162 716.48,-198"/>
<text text-anchor="middle" x="642" y="-175.8" font-family="Times,serif" font-size="14.00">BannersListComponent</text>
</g>
<!-- BannersListComponent&#45;&gt;CategoryModule -->
<g id="edge14" class="edge">
<title>BannersListComponent&#45;&gt;CategoryModule</title>
<path fill="none" stroke="black" d="M642,-198.01C642,-220.49 642,-256 642,-256 642,-256 548.61,-256 548.61,-256"/>
<polygon fill="black" stroke="black" points="548.61,-252.5 538.61,-256 548.61,-259.5 548.61,-252.5"/>
</g>
<!-- CategoryComponent -->
<g id="node12" class="node">
<title>CategoryComponent</title>
<polygon fill="#ffffb3" stroke="black" points="549.15,-198 416.85,-198 416.85,-162 549.15,-162 549.15,-198"/>
<text text-anchor="middle" x="483" y="-175.8" font-family="Times,serif" font-size="14.00">CategoryComponent</text>
</g>
<!-- CategoryComponent&#45;&gt;CategoryModule -->
<g id="edge15" class="edge">
<title>CategoryComponent&#45;&gt;CategoryModule</title>
<path fill="none" stroke="black" d="M464.52,-198.01C464.52,-198.01 464.52,-227.85 464.52,-227.85"/>
<polygon fill="black" stroke="black" points="461.02,-227.85 464.52,-237.85 468.02,-227.85 461.02,-227.85"/>
</g>
<!-- CategoryListComponent -->
<g id="node13" class="node">
<title>CategoryListComponent</title>
<polygon fill="#ffffb3" stroke="black" points="398.43,-198 243.57,-198 243.57,-162 398.43,-162 398.43,-198"/>
<text text-anchor="middle" x="321" y="-175.8" font-family="Times,serif" font-size="14.00">CategoryListComponent</text>
</g>
<!-- CategoryListComponent&#45;&gt;CategoryModule -->
<g id="edge16" class="edge">
<title>CategoryListComponent&#45;&gt;CategoryModule</title>
<path fill="none" stroke="black" d="M321,-198.03C321,-218.77 321,-250 321,-250 321,-250 417.25,-250 417.25,-250"/>
<polygon fill="black" stroke="black" points="417.25,-253.5 427.25,-250 417.25,-246.5 417.25,-253.5"/>
</g>
<!-- CategoryListElementComponent -->
<g id="node14" class="node">
<title>CategoryListElementComponent</title>
<polygon fill="#ffffb3" stroke="black" points="225.58,-198 24.42,-198 24.42,-162 225.58,-162 225.58,-198"/>
<text text-anchor="middle" x="125" y="-175.8" font-family="Times,serif" font-size="14.00">CategoryListElementComponent</text>
</g>
<!-- CategoryListElementComponent&#45;&gt;CategoryModule -->
<g id="edge17" class="edge">
<title>CategoryListElementComponent&#45;&gt;CategoryModule</title>
<path fill="none" stroke="black" d="M125,-198.2C125,-222.36 125,-262 125,-262 125,-262 417.46,-262 417.46,-262"/>
<polygon fill="black" stroke="black" points="417.46,-265.5 427.46,-262 417.46,-258.5 417.46,-265.5"/>
</g>
<!-- CategoryListComponent  -->
<g id="node16" class="node">
<title>CategoryListComponent </title>
<polygon fill="#fb8072" stroke="black" points="561.93,-342 404.07,-342 404.07,-306 561.93,-306 561.93,-342"/>
<text text-anchor="middle" x="483" y="-319.8" font-family="Times,serif" font-size="14.00">CategoryListComponent </text>
</g>
<!-- CategoryModule&#45;&gt;CategoryListComponent  -->
<g id="edge19" class="edge">
<title>CategoryModule&#45;&gt;CategoryListComponent </title>
<path fill="none" stroke="black" stroke-dasharray="5,2" d="M483,-274.22C483,-274.22 483,-295.73 483,-295.73"/>
<polygon fill="black" stroke="black" points="479.5,-295.73 483,-305.73 486.5,-295.73 479.5,-295.73"/>
</g>
<!-- DashboardComponent -->
<g id="node17" class="node">
<title>DashboardComponent</title>
<polygon fill="#ffffb3" stroke="black" points="3899.97,-198 3758.03,-198 3758.03,-162 3899.97,-162 3899.97,-198"/>
<text text-anchor="middle" x="3829" y="-175.8" font-family="Times,serif" font-size="14.00">DashboardComponent</text>
</g>
<!-- DashboardComponent&#45;&gt;DashboardModule -->
<g id="edge20" class="edge">
<title>DashboardComponent&#45;&gt;DashboardModule</title>
<path fill="none" stroke="black" d="M3829,-198.06C3829,-209.44 3829,-222 3829,-222 3829,-222 2475.14,-222 2475.14,-222 2475.14,-222 2475.14,-227.81 2475.14,-227.81"/>
<polygon fill="black" stroke="black" points="2471.64,-227.81 2475.14,-237.81 2478.64,-227.81 2471.64,-227.81"/>
</g>
<!-- HomeComponent -->
<g id="node18" class="node">
<title>HomeComponent</title>
<polygon fill="#ffffb3" stroke="black" points="871.55,-198 756.45,-198 756.45,-162 871.55,-162 871.55,-198"/>
<text text-anchor="middle" x="814" y="-175.8" font-family="Times,serif" font-size="14.00">HomeComponent</text>
</g>
<!-- HomeComponent&#45;&gt;HomeModule -->
<g id="edge22" class="edge">
<title>HomeComponent&#45;&gt;HomeModule</title>
<path fill="none" stroke="black" d="M807.37,-198.01C807.37,-198.01 807.37,-227.85 807.37,-227.85"/>
<polygon fill="black" stroke="black" points="803.87,-227.85 807.37,-237.85 810.87,-227.85 803.87,-227.85"/>
</g>
<!-- ProductService -->
<g id="node21" class="node">
<title>ProductService</title>
<ellipse fill="#fdb462" stroke="black" cx="3648" cy="-104" rx="70.06" ry="18"/>
<text text-anchor="middle" x="3648" y="-99.8" font-family="Times,serif" font-size="14.00">ProductService</text>
</g>
<!-- ProductService&#45;&gt;ProductModule -->
<g id="edge26" class="edge">
<title>ProductService&#45;&gt;ProductModule</title>
<path fill="none" stroke="black" d="M3620.31,-120.8C3620.31,-137.3 3620.31,-160 3620.31,-160 3620.31,-160 2235.45,-160 2235.45,-160 2235.45,-160 2235.45,-160.18 2235.45,-160.18"/>
<polygon fill="black" stroke="black" points="2231.95,-151.85 2235.45,-161.85 2238.95,-151.85 2231.95,-151.85"/>
</g>
<!-- ProductService&#45;&gt;ProductHttpModule -->
<g id="edge25" class="edge">
<title>ProductService&#45;&gt;ProductHttpModule</title>
<path fill="none" stroke="black" d="M3662.65,-121.63C3662.65,-121.63 3662.65,-151.94 3662.65,-151.94"/>
<polygon fill="black" stroke="black" points="3659.15,-151.94 3662.65,-161.94 3666.15,-151.94 3659.15,-151.94"/>
</g>
<!-- NewProductFormComponent -->
<g id="node22" class="node">
<title>NewProductFormComponent</title>
<polygon fill="#ffffb3" stroke="black" points="1727.64,-274 1546.36,-274 1546.36,-238 1727.64,-238 1727.64,-274"/>
<text text-anchor="middle" x="1637" y="-251.8" font-family="Times,serif" font-size="14.00">NewProductFormComponent</text>
</g>
<!-- ProductsModule -->
<g id="node25" class="node">
<title>ProductsModule</title>
<polygon fill="#8dd3c7" stroke="black" points="1412.04,-342 1409.04,-346 1388.04,-346 1385.04,-342 1303.96,-342 1303.96,-306 1412.04,-306 1412.04,-342"/>
<text text-anchor="middle" x="1358" y="-319.8" font-family="Times,serif" font-size="14.00">ProductsModule</text>
</g>
<!-- NewProductFormComponent&#45;&gt;ProductsModule -->
<g id="edge27" class="edge">
<title>NewProductFormComponent&#45;&gt;ProductsModule</title>
<path fill="none" stroke="black" d="M1637,-274.03C1637,-291.06 1637,-314 1637,-314 1637,-314 1422.12,-314 1422.12,-314"/>
<polygon fill="black" stroke="black" points="1422.12,-310.5 1412.12,-314 1422.12,-317.5 1422.12,-310.5"/>
</g>
<!-- ProductDetailsComponent -->
<g id="node23" class="node">
<title>ProductDetailsComponent</title>
<polygon fill="#ffffb3" stroke="black" points="1528.03,-274 1363.97,-274 1363.97,-238 1528.03,-238 1528.03,-274"/>
<text text-anchor="middle" x="1446" y="-251.8" font-family="Times,serif" font-size="14.00">ProductDetailsComponent</text>
</g>
<!-- ProductDetailsComponent&#45;&gt;ProductsModule -->
<g id="edge28" class="edge">
<title>ProductDetailsComponent&#45;&gt;ProductsModule</title>
<path fill="none" stroke="black" d="M1388,-274.22C1388,-274.22 1388,-295.73 1388,-295.73"/>
<polygon fill="black" stroke="black" points="1384.5,-295.73 1388,-305.73 1391.5,-295.73 1384.5,-295.73"/>
</g>
<!-- ProductsListComponent -->
<g id="node24" class="node">
<title>ProductsListComponent</title>
<polygon fill="#ffffb3" stroke="black" points="1346.1,-274 1193.9,-274 1193.9,-238 1346.1,-238 1346.1,-274"/>
<text text-anchor="middle" x="1270" y="-251.8" font-family="Times,serif" font-size="14.00">ProductsListComponent</text>
</g>
<!-- ProductsListComponent&#45;&gt;ProductsModule -->
<g id="edge29" class="edge">
<title>ProductsListComponent&#45;&gt;ProductsModule</title>
<path fill="none" stroke="black" d="M1324.89,-274.22C1324.89,-274.22 1324.89,-295.73 1324.89,-295.73"/>
<polygon fill="black" stroke="black" points="1321.39,-295.73 1324.89,-305.73 1328.39,-295.73 1321.39,-295.73"/>
</g>
<!-- SharedModule&#45;&gt;ProductsModule -->
<g id="edge30" class="edge">
<title>SharedModule&#45;&gt;ProductsModule</title>
<path fill="none" stroke="black" d="M1137.4,-274.27C1137.4,-292.56 1137.4,-318 1137.4,-318 1137.4,-318 1293.75,-318 1293.75,-318"/>
<polygon fill="black" stroke="black" points="1293.75,-321.5 1303.75,-318 1293.75,-314.5 1293.75,-321.5"/>
</g>
<!-- UiModule  -->
<g id="node29" class="node">
<title>UiModule </title>
<polygon fill="#fb8072" stroke="black" points="1031.55,-342 954.45,-342 954.45,-306 1031.55,-306 1031.55,-342"/>
<text text-anchor="middle" x="993" y="-319.8" font-family="Times,serif" font-size="14.00">UiModule </text>
</g>
<!-- SharedModule&#45;&gt;UiModule  -->
<g id="edge34" class="edge">
<title>SharedModule&#45;&gt;UiModule </title>
<path fill="none" stroke="black" stroke-dasharray="5,2" d="M1104.6,-274.29C1104.6,-296.21 1104.6,-330 1104.6,-330 1104.6,-330 1041.72,-330 1041.72,-330"/>
<polygon fill="black" stroke="black" points="1041.72,-326.5 1031.72,-330 1041.72,-333.5 1041.72,-326.5"/>
</g>
<!-- ProfileComponent -->
<g id="node27" class="node">
<title>ProfileComponent</title>
<polygon fill="#ffffb3" stroke="black" points="1031.93,-198 912.07,-198 912.07,-162 1031.93,-162 1031.93,-198"/>
<text text-anchor="middle" x="972" y="-175.8" font-family="Times,serif" font-size="14.00">ProfileComponent</text>
</g>
<!-- ProfileComponent&#45;&gt;ProfileModule -->
<g id="edge31" class="edge">
<title>ProfileComponent&#45;&gt;ProfileModule</title>
<path fill="none" stroke="black" d="M981,-198.01C981,-198.01 981,-227.85 981,-227.85"/>
<polygon fill="black" stroke="black" points="977.5,-227.85 981,-237.85 984.5,-227.85 977.5,-227.85"/>
</g>
<!-- BannerComponent -->
<g id="node30" class="node">
<title>BannerComponent</title>
<polygon fill="#ffffb3" stroke="black" points="3537.76,-122 3416.24,-122 3416.24,-86 3537.76,-86 3537.76,-122"/>
<text text-anchor="middle" x="3477" y="-99.8" font-family="Times,serif" font-size="14.00">BannerComponent</text>
</g>
<!-- BannerComponent&#45;&gt;UiModule -->
<g id="edge35" class="edge">
<title>BannerComponent&#45;&gt;UiModule</title>
<path fill="none" stroke="black" d="M3477,-122.24C3477,-137.57 3477,-157 3477,-157 3477,-157 2176.94,-157 2176.94,-157 2176.94,-157 2176.94,-157.49 2176.94,-157.49"/>
<polygon fill="black" stroke="black" points="2173.44,-151.88 2176.94,-161.88 2180.44,-151.88 2173.44,-151.88"/>
</g>
<!-- ButtonComponent -->
<g id="node31" class="node">
<title>ButtonComponent</title>
<polygon fill="#ffffb3" stroke="black" points="3397.95,-122 3278.05,-122 3278.05,-86 3397.95,-86 3397.95,-122"/>
<text text-anchor="middle" x="3338" y="-99.8" font-family="Times,serif" font-size="14.00">ButtonComponent</text>
</g>
<!-- ButtonComponent&#45;&gt;UiModule -->
<g id="edge36" class="edge">
<title>ButtonComponent&#45;&gt;UiModule</title>
<path fill="none" stroke="black" d="M3338,-122.12C3338,-136.78 3338,-155 3338,-155 3338,-155 2174.1,-155 2174.1,-155 2174.1,-155 2174.1,-155.68 2174.1,-155.68"/>
<polygon fill="black" stroke="black" points="2170.6,-151.83 2174.1,-161.83 2177.6,-151.83 2170.6,-151.83"/>
</g>
<!-- FooterComponent -->
<g id="node32" class="node">
<title>FooterComponent</title>
<polygon fill="#ffffb3" stroke="black" points="3259.88,-122 3142.12,-122 3142.12,-86 3259.88,-86 3259.88,-122"/>
<text text-anchor="middle" x="3201" y="-99.8" font-family="Times,serif" font-size="14.00">FooterComponent</text>
</g>
<!-- FooterComponent&#45;&gt;UiModule -->
<g id="edge37" class="edge">
<title>FooterComponent&#45;&gt;UiModule</title>
<path fill="none" stroke="black" d="M3201,-122.15C3201,-135.74 3201,-152 3201,-152 3201,-152 2171.26,-152 2171.26,-152 2171.26,-152 2171.26,-152.98 2171.26,-152.98"/>
<polygon fill="black" stroke="black" points="2167.76,-151.79 2171.26,-161.79 2174.76,-151.79 2167.76,-151.79"/>
</g>
<!-- FormComponent -->
<g id="node33" class="node">
<title>FormComponent</title>
<polygon fill="#ffffb3" stroke="black" points="3123.67,-122 3012.33,-122 3012.33,-86 3123.67,-86 3123.67,-122"/>
<text text-anchor="middle" x="3068" y="-99.8" font-family="Times,serif" font-size="14.00">FormComponent</text>
</g>
<!-- FormComponent&#45;&gt;UiModule -->
<g id="edge38" class="edge">
<title>FormComponent&#45;&gt;UiModule</title>
<path fill="none" stroke="black" d="M3068,-122.18C3068,-135.04 3068,-150 3068,-150 3068,-150 2168.42,-150 2168.42,-150 2168.42,-150 2168.42,-151.86 2168.42,-151.86"/>
<polygon fill="black" stroke="black" points="2164.92,-151.86 2168.42,-161.86 2171.92,-151.86 2164.92,-151.86"/>
</g>
<!-- InputDirective -->
<g id="node34" class="node">
<title>InputDirective</title>
<polygon fill="#ffffb3" stroke="black" points="2993.63,-122 2896.37,-122 2896.37,-86 2993.63,-86 2993.63,-122"/>
<text text-anchor="middle" x="2945" y="-99.8" font-family="Times,serif" font-size="14.00">InputDirective</text>
</g>
<!-- InputDirective&#45;&gt;UiModule -->
<g id="edge39" class="edge">
<title>InputDirective&#45;&gt;UiModule</title>
<path fill="none" stroke="black" d="M2945,-122.49C2945,-134.14 2945,-147 2945,-147 2945,-147 2165.59,-147 2165.59,-147 2165.59,-147 2165.59,-151.96 2165.59,-151.96"/>
<polygon fill="black" stroke="black" points="2162.09,-151.96 2165.59,-161.96 2169.09,-151.96 2162.09,-151.96"/>
</g>
<!-- LabelComponent -->
<g id="node35" class="node">
<title>LabelComponent</title>
<polygon fill="#ffffb3" stroke="black" points="2878.7,-122 2765.3,-122 2765.3,-86 2878.7,-86 2878.7,-122"/>
<text text-anchor="middle" x="2822" y="-99.8" font-family="Times,serif" font-size="14.00">LabelComponent</text>
</g>
<!-- LabelComponent&#45;&gt;UiModule -->
<g id="edge40" class="edge">
<title>LabelComponent&#45;&gt;UiModule</title>
<path fill="none" stroke="black" d="M2822,-122.1C2822,-133.09 2822,-145 2822,-145 2822,-145 2162.75,-145 2162.75,-145 2162.75,-145 2162.75,-151.68 2162.75,-151.68"/>
<polygon fill="black" stroke="black" points="2159.25,-151.68 2162.75,-161.68 2166.25,-151.68 2159.25,-151.68"/>
</g>
<!-- LoaderComponent -->
<g id="node36" class="node">
<title>LoaderComponent</title>
<polygon fill="#ffffb3" stroke="black" points="2747.47,-122 2626.53,-122 2626.53,-86 2747.47,-86 2747.47,-122"/>
<text text-anchor="middle" x="2687" y="-99.8" font-family="Times,serif" font-size="14.00">LoaderComponent</text>
</g>
<!-- LoaderComponent&#45;&gt;UiModule -->
<g id="edge41" class="edge">
<title>LoaderComponent&#45;&gt;UiModule</title>
<path fill="none" stroke="black" d="M2673.62,-122.11C2673.62,-131.9 2673.62,-142 2673.62,-142 2673.62,-142 2159.91,-142 2159.91,-142 2159.91,-142 2159.91,-151.89 2159.91,-151.89"/>
<polygon fill="black" stroke="black" points="2156.41,-151.89 2159.91,-161.89 2163.41,-151.89 2156.41,-151.89"/>
</g>
<!-- NavbarComponent -->
<g id="node37" class="node">
<title>NavbarComponent</title>
<polygon fill="#ffffb3" stroke="black" points="2608.03,-122 2485.97,-122 2485.97,-86 2608.03,-86 2608.03,-122"/>
<text text-anchor="middle" x="2547" y="-99.8" font-family="Times,serif" font-size="14.00">NavbarComponent</text>
</g>
<!-- NavbarComponent&#45;&gt;UiModule -->
<g id="edge42" class="edge">
<title>NavbarComponent&#45;&gt;UiModule</title>
<path fill="none" stroke="black" d="M2538.27,-122.42C2538.27,-131.28 2538.27,-140 2538.27,-140 2538.27,-140 2157.07,-140 2157.07,-140 2157.07,-140 2157.07,-151.87 2157.07,-151.87"/>
<polygon fill="black" stroke="black" points="2153.57,-151.87 2157.07,-161.87 2160.57,-151.87 2153.57,-151.87"/>
</g>
<!-- PageIntroHeaderComponent -->
<g id="node38" class="node">
<title>PageIntroHeaderComponent</title>
<polygon fill="#ffffb3" stroke="black" points="2468.17,-122 2291.83,-122 2291.83,-86 2468.17,-86 2468.17,-122"/>
<text text-anchor="middle" x="2380" y="-99.8" font-family="Times,serif" font-size="14.00">PageIntroHeaderComponent</text>
</g>
<!-- PageIntroHeaderComponent&#45;&gt;UiModule -->
<g id="edge43" class="edge">
<title>PageIntroHeaderComponent&#45;&gt;UiModule</title>
<path fill="none" stroke="black" d="M2296.23,-122.04C2296.23,-129.75 2296.23,-137 2296.23,-137 2296.23,-137 2154.23,-137 2154.23,-137 2154.23,-137 2154.23,-151.51 2154.23,-151.51"/>
<polygon fill="black" stroke="black" points="2150.73,-151.51 2154.23,-161.51 2157.73,-151.51 2150.73,-151.51"/>
</g>
<!-- ProductComponent -->
<g id="node39" class="node">
<title>ProductComponent</title>
<polygon fill="#ffffb3" stroke="black" points="2273.38,-122 2148.62,-122 2148.62,-86 2273.38,-86 2273.38,-122"/>
<text text-anchor="middle" x="2211" y="-99.8" font-family="Times,serif" font-size="14.00">ProductComponent</text>
</g>
<!-- ProductComponent&#45;&gt;UiModule -->
<g id="edge44" class="edge">
<title>ProductComponent&#45;&gt;UiModule</title>
<path fill="none" stroke="black" d="M2151.4,-122.01C2151.4,-122.01 2151.4,-151.85 2151.4,-151.85"/>
<polygon fill="black" stroke="black" points="2147.9,-151.85 2151.4,-161.85 2154.9,-151.85 2147.9,-151.85"/>
</g>
<!-- TableComponent -->
<g id="node40" class="node">
<title>TableComponent</title>
<polygon fill="#ffffb3" stroke="black" points="2130.7,-122 2017.3,-122 2017.3,-86 2130.7,-86 2130.7,-122"/>
<text text-anchor="middle" x="2074" y="-99.8" font-family="Times,serif" font-size="14.00">TableComponent</text>
</g>
<!-- TableComponent&#45;&gt;UiModule -->
<g id="edge45" class="edge">
<title>TableComponent&#45;&gt;UiModule</title>
<path fill="none" stroke="black" d="M2127.12,-122.01C2127.12,-122.01 2127.12,-151.85 2127.12,-151.85"/>
<polygon fill="black" stroke="black" points="2123.62,-151.85 2127.12,-161.85 2130.62,-151.85 2123.62,-151.85"/>
</g>
<!-- TruncatePipe -->
<g id="node41" class="node">
<title>TruncatePipe</title>
<polygon fill="#ffffb3" stroke="black" points="1999.14,-122 1908.86,-122 1908.86,-86 1999.14,-86 1999.14,-122"/>
<text text-anchor="middle" x="1954" y="-99.8" font-family="Times,serif" font-size="14.00">TruncatePipe</text>
</g>
<!-- TruncatePipe&#45;&gt;UiModule -->
<g id="edge46" class="edge">
<title>TruncatePipe&#45;&gt;UiModule</title>
<path fill="none" stroke="black" d="M1954,-122.27C1954,-140.56 1954,-166 1954,-166 1954,-166 2096.11,-166 2096.11,-166"/>
<polygon fill="black" stroke="black" points="2096.11,-169.5 2106.11,-166 2096.11,-162.5 2096.11,-169.5"/>
</g>
</g>
</svg>
